<svg height="128" viewBox="0 0 128 128" width="128" xmlns="http://www.w3.org/2000/svg"><g fill="none" fill-rule="evenodd"><path d="m0 0h128v128h-128z" fill="#f73f13"/><path d="m42.505135 95.387001c-.024726.4865935-.0546575.8627172-.0559589 1.2388408-.0039041 2.9406032-.0039041 5.8798912-.0026027 8.8191792.0013014 1.534742.0169178 1.553154 1.5486289 1.553154 7.8849937.001825 15.7699874.001825 23.6549811.001825.1913012 0 .3839038-.00577.575205-.00314.6532872.015781.9669171-.251188.963013-.963981-.0234247-3.249656-.0195206-6.4979969-.0065069-9.7476526.0026028-.6404623-.2628765-.9087463-.8914376-.9008556-.9955472.0184116-1.989793.0210418-2.9853401-.0013152-2.1355462-.0486593-3.5175999-1.1993873-3.9496544-3.3154116-.1301369-.6404623-.2056163-1.3019665-.208219-1.9542649-.0143151-6.225767.0078082-12.4554795-.0234246-18.6825617-.0052055-.9915987.2915066-1.3664072 1.309177-1.3598316 3.3289015.0197267 6.6565015-.0815373 9.985403-.0591803.9018486.0065756 1.8362314.1749106 2.6977376.4524005 1.6605466.5326226 2.311231 1.5334272 2.3242447 3.2917395.0091096 1.5492086.0013014 3.095787.0052055 4.6410503.0026027.67071.2056162 1.0823418.9994512 1.073136 2.8317786-.0315628 5.6648585-.0263024 8.4966371-.0039454.7547939.0078907 1.0423964-.3340399 1.0111636-1.0494639-.0052055-.1144152 0-.2301456 0-.347191 0-8.8573176-.0052055-17.7172653.0091095-26.575898.0013014-.8258939-.0832876-1.4795074-1.115273-1.4781923-2.83308.0065756-5.6661599.0065756-8.4979385 0-.8263692-.0013151-1.1634237.4076865-1.1399991 1.2243746.0260274.9284731.010411 1.8569462.0026028 2.7854192-.0234247 2.7354448-1.4991769 4.2504604-4.1852022 4.2609813-3.4434219.0131512-6.8894465-.0289326-10.3328684.0236721-1.0632184.0157814-1.3885606-.3563969-1.3846565-1.4137515.0325343-7.6197918.0325343-15.2408987 0-22.8606905-.0039041-1.0455186.3058217-1.453205 1.3729441-1.4400539 2.9462991.0368233 5.8938995-.0591803 8.8401985-.0065756 2.311231.0407687 4.4662978 1.1428373 4.2723938 4.257036-.1197259 1.9253322.0156165 3.8664459-.0377397 5.7996689-.0273287.9929138.3006162 1.3756131 1.3208894 1.3585166 3.1362989-.0499745 6.2765018-.0631257 9.4141021.0065755 1.1360949.0249873 1.517396-.2840654 1.5085987-1.4887132-.0562711-6.5755883-.027641-13.1511767-.027641-19.7267651 0-1.7938205 0-1.7951356-1.7620534-1.7951356-14.7757416 0-29.5514833 0-44.3272249 0-.3071231 0-.6116434.0039454-.9187664.0039454-.6623967.0026302-.9643143.3327247-.9643143 1.0086952.010411 3.2115174.0078082 6.4204045.0039041 9.6319219-.0013014.6878065.317534.9560905.9981499.9324184 1.0684238-.0368233 2.1420531.0065756 3.214381-.0210419 3.0295866-.0749617 4.8085578 1.3151177 5.1143795 4.3688209.2381505 2.3737874.1899998 4.7817679.1873971 7.175282-.0195205 15.3934524-.0611644 30.7869048-.098904 46.179042-.0013014.502375-.0117124 1.0113255-.0871918 1.5044947-.3734928 2.4000897-1.7620533 3.5981619-4.1409556 3.6021073-.8745198.0026302-1.7438342.0013151-2.6860252.0013151z" fill="#fff"/></g></svg>