<svg xmlns="http://www.w3.org/2000/svg" width="640" height="400" viewBox="0 0 640 400">
  <path opacity=".06" fill="currentColor" fill-rule="evenodd" d="M334.766766,0 C342.169647,2.0303757 349.824083,3.4332534 356.943467,6.21103118 C381.260375,15.6954436 405.441524,25.5555556 429.578751,35.4756195 C467.599375,51.1031175 505.612014,66.7266187 543.496879,82.6698641 C566.619903,92.4020783 588.38134,104.560352 607.315786,121.306954 C629.093195,140.567546 639.335046,164.980016 639.945963,193.808953 C640.289354,209.88809 639.09547,225.711431 633.481419,240.939249 C625.459634,262.717826 611.891677,279.820144 591.955007,292.094325 C572.577346,304.02478 551.666402,312.521982 530.807366,321.235012 C474.303495,344.840128 417.871497,368.633094 361.243846,391.958433 C352.675031,395.483613 343.223779,396.870504 334.187792,399.260592 C333.433129,399.464428 332.690445,399.748201 331.947761,400 L317.852739,400 C317.44546,399.792166 317.066133,399.516387 316.642883,399.40048 C309.335831,397.342126 301.757261,395.971223 294.753672,393.165468 C232.779496,368.393285 170.95705,343.23741 108.974888,318.473221 C87.716559,309.976019 66.9174168,300.835332 47.6435717,288.221423 C24.3967669,273.001599 9.13581059,252.54996 3.25423323,225.291767 C2.02441257,219.592326 1.07409661,213.844924 0,208.113509 L0,186.95044 C0.726712206,183.053557 1.34960838,179.136691 2.19610831,175.267786 C8.25736726,147.54996 21.6456421,124.732214 45.8906779,108.91287 C60.0895164,99.6522782 74.8833006,91.598721 90.6313937,85.3956835 C145.098873,63.9328537 199.598295,42.54996 254.133654,21.2509992 C269.390618,15.2917666 284.735425,9.51239009 300.188042,4.07673861 C305.854001,2.07833733 311.951197,1.32294165 317.856732,0 C323.490748,0 329.128757,0 334.766766,0 Z M257.828547,295.890933 C257.751278,297.36203 257.657742,298.499148 257.653675,299.636266 C257.641475,308.526462 257.641475,317.412681 257.645542,326.298901 C257.649609,330.938819 257.69841,330.994482 262.485007,330.994482 C287.125613,331 311.766218,331 336.406823,331 C337.004639,331 337.606523,330.982555 338.204339,330.990506 C340.245861,331.038218 341.225955,330.231102 341.213754,328.076145 C341.140552,318.251604 341.152753,308.431039 341.19342,298.606498 C341.201554,296.670217 340.371931,295.859126 338.407678,295.882981 C335.296593,295.938644 332.189575,295.946596 329.07849,295.879005 C322.404908,295.731896 318.08599,292.252951 316.73582,285.855668 C316.329142,283.919386 316.093269,281.91949 316.085136,279.947425 C316.040401,261.125339 316.109536,242.291324 316.011934,223.465262 C315.995667,220.467405 316.922892,219.334263 320.103112,219.354143 C330.505929,219.413782 340.904679,219.107635 351.307496,219.175226 C354.125773,219.195106 357.045719,219.704025 359.737926,220.542948 C364.927134,222.153203 366.960523,225.178891 367.001191,230.494719 C367.029658,235.178373 367.005258,239.854075 367.017458,244.525801 C367.025592,246.553529 367.660009,247.797997 370.140743,247.770166 C378.990051,247.674743 387.843426,247.690647 396.692734,247.758238 C399.051465,247.782094 399.950223,246.74835 399.85262,244.58544 C399.836353,244.239534 399.85262,243.889651 399.85262,243.535793 C399.85262,216.757856 399.836353,189.971967 399.881088,163.190055 C399.885154,160.693166 399.620814,158.717125 396.395859,158.721101 C387.542484,158.740981 378.68911,158.740981 369.839802,158.721101 C367.257398,158.717125 366.204102,159.953642 366.277304,162.422699 C366.35864,165.229711 366.309839,168.036722 366.285438,170.843734 C366.212236,179.113683 361.60051,183.693963 353.206681,183.72577 C342.445988,183.76553 331.677161,183.6383 320.916467,183.797337 C317.59391,183.845048 316.577216,182.719858 316.589416,179.523205 C316.691085,156.486625 316.691085,133.446069 316.589416,110.409489 C316.577216,107.248619 317.545109,106.016079 320.879866,106.055838 C330.087051,106.167164 339.298302,105.876921 348.505486,106.035958 C355.728083,106.159212 362.462667,109.491048 361.856717,118.906067 C361.482574,124.726839 361.905519,130.595322 361.738781,136.43995 C361.653378,139.441782 362.678206,140.59878 365.86656,140.547093 C375.667494,140.396007 385.480628,140.356248 395.285629,140.566972 C398.835926,140.642515 400.027492,139.70817 400,136.066212 C399.824153,116.186526 399.913622,96.30684 399.913622,76.4271542 C399.913622,71.0039759 399.913622,71 394.407205,71 C348.233012,71 302.05882,71 255.884627,71 C254.924868,71 253.973242,71.0119278 253.013482,71.0119278 C250.943492,71.0198797 250,72.0178399 250,74.0614716 C250.032534,83.7707101 250.024401,93.4719968 250.0122,103.181235 C250.008134,105.26065 251.004494,106.071742 253.131419,106.000175 C256.470243,105.888849 259.825335,106.020054 263.176359,105.93656 C272.643818,105.709931 278.203102,109.912497 279.158795,119.144623 C279.903016,126.32119 279.752545,133.60113 279.744411,140.837336 C279.68341,187.37568 279.553273,233.914025 279.435336,280.448393 C279.431269,281.967201 279.398735,283.505889 279.162862,284.996865 C277.995697,292.252951 273.656445,295.875029 266.222376,295.886957 C263.489501,295.894909 260.772894,295.890933 257.828547,295.890933 Z" />
</svg>
