<svg xmlns="http://www.w3.org/2000/svg" width="24" height="24" viewBox="0 0 24 24">
  <g fill="none" fill-rule="evenodd" stroke="currentColor" stroke-linecap="round" stroke-linejoin="round"
    stroke-width="1.5" transform="translate(4 3)">
    <path
      d="M8,0 C11.3137085,-6.08718376e-16 14,2.6862915 14,6 L14,10 L15.4142136,11.4142136 C15.7892863,11.7892863 16,12.2979941 16,12.8284271 L16,13.5 C16,14.3284271 15.3284271,15 14.5,15 L1.5,15 C0.671572875,15 1.01453063e-16,14.3284271 0,13.5 L0,12.8284271 C3.79129905e-16,12.2979941 0.210713681,11.7892863 0.585786438,11.4142136 L2,10 L2,6 C2,2.6862915 4.6862915,6.08718376e-16 8,0 Z" />
    <path
      d="M10,15.9994038 C10,17.1039733 9.1045695,17.9994038 8,17.9994038 C6.8954305,17.9994038 6,17.1039733 6,15.9994038 C6,15.62812 6.10117144,15.280466 6.27744993,14.9825062 C6.35061138,14.9944453 6.42465695,15.0000001 6.49999993,15.0000001 L6.49999993,15.0000001 L9.50000007,15.0000001 C9.57534305,15.0000001 9.64938862,14.9944453 9.7217496,14.9837229 C9.89882856,15.280466 10,15.62812 10,15.9994038 Z" />
  </g>
</svg>