<svg width="24px" height="24px" viewBox="0 0 24 24" version="1.1" xmlns="http://www.w3.org/2000/svg" xmlns:xlink="http://www.w3.org/1999/xlink">
    <path d="M9.34616,19 C15.76128,19 19.27008,13.6133619 19.27008,8.94209356 C19.27008,8.78909539 19.27008,8.63678641 19.25988,8.4851666 C19.9424853,7.98475981 20.5317217,7.36516448 21,6.65539124 C20.3634378,6.94126471 19.6881639,7.12874045 18.99672,7.21156025 C19.7248259,6.76978291 20.269764,6.07494376 20.53012,5.25635396 C19.8454671,5.66810877 19.0964393,5.95829302 18.31536,6.11438422 C17.2342163,4.949251 15.5162892,4.66408055 14.1248935,5.41878007 C12.7334978,6.1734796 12.014667,7.780359 12.37148,9.33837259 C9.5670891,9.19588411 6.95424353,7.85341049 5.1832,5.645052 C4.25746347,7.26024725 4.73031176,9.32655967 6.26304,10.3638738 C5.70798402,10.3472008 5.16502997,10.1954471 4.68,9.92141965 C4.68,9.93589245 4.68,9.95105443 4.68,9.96621641 C4.68045433,11.6489157 5.85079101,13.0982234 7.4782,13.4314181 C6.96471132,13.5733481 6.4259548,13.5940953 5.90332,13.492066 C6.36024459,14.9320564 7.6696707,15.9185231 9.16188,15.9469285 C7.92681983,16.9306874 6.40112047,17.4647308 4.83028,17.4631265 C4.55277443,17.4625866 4.27553876,17.4455576 4,17.4121271 C5.59503245,18.449535 7.45094111,18.9998049 9.34616,18.9972433" stroke="none" fill="currentColor" fill-rule="nonzero"></path>
</svg>