<svg width="24px" height="24px" viewBox="0 0 24 24" version="1.1" xmlns="http://www.w3.org/2000/svg" xmlns:xlink="http://www.w3.org/1999/xlink">
    <g stroke="currentColor" fill="none" fill-rule="evenodd" stroke-linecap="round" stroke-linejoin="round">
        <path stroke-width="1.5" d="M9.05263158,17.1176252 C7.89677221,18.2941249 6.0227539,18.2941249 4.86689453,17.1176252 C3.71103516,15.9411255 3.71103516,14.0336426 4.86689453,12.8571429 L9.05263158,8.5966605 C10.2084909,7.42016079 12.0825093,7.42016079 13.2383686,8.5966605 C14.394228,9.77316022 14.394228,11.6806431 13.2383686,12.8571429 L12.4560033,13.7134487"></path>
        <path stroke-width="1.5" d="M14.9473684,6.88237479 C16.1032278,5.70587507 17.9772461,5.70587507 19.1331055,6.88237479 C20.2889648,8.0588745 20.2889648,9.96635743 19.1331055,11.1428571 L14.9473684,15.4033395 C13.7915091,16.5798392 11.9174907,16.5798392 10.7616314,15.4033395 C9.605772,14.2268398 9.605772,12.3193569 10.7616314,11.1428571 L11.4172492,10.4553223"></path>
    </g>
</svg>