<svg height="24" viewBox="0 0 24 24" width="24" xmlns="http://www.w3.org/2000/svg">
    <g fill="currentColor" stroke="currentColor" stroke-linecap="round" stroke-linejoin="round" stroke-width="1.5">
        <path d="m7 3h2c.55228475 0 1 .44771525 1 1v16c0 .5522847-.44771525 1-1 1h-2c-.55228475 0-1-.4477153-1-1v-16c0-.55228475.44771525-1 1-1z"/>
        <path d="m15 3h2c.5522847 0 1 .44771525 1 1v16c0 .5522847-.4477153 1-1 1h-2c-.5522847 0-1-.4477153-1-1v-16c0-.55228475.4477153-1 1-1z"/>
    </g>
</svg>