<svg height="48" viewBox="0 0 235 48" width="235" xmlns="http://www.w3.org/2000/svg"><g fill="none" fill-rule="evenodd"><path d="m0 48h70.6864253v-48h-70.6864253z" fill="#fffffe"/><path d="m1.35934972 46.6286673h67.96796548v-45.31221666h-67.96796548z" fill="#194789"/><path d="m33.895069 11.1892313 1.4341235-1.0465938 1.4343633 1.0465938-.5459448-1.69271635 1.4568912-1.04659384h-1.79577l-.5495397-1.71308741-.5495396 1.71500469-1.7945717-.00191728 1.4556929 1.04659384z" fill="#faec32"/><path d="m26.4730483 13.1831999 1.4341235-1.0465939 1.4334046 1.0465939-.5449861-1.6927164 1.4559325-1.0465938h-1.79577l-.5493-1.71500472-.5495396 1.71692202-1.7948114-.0019173 1.4556929 1.0465938z" fill="#faec32"/><path d="m22.4764834 14.171796-.5495397 1.716922-1.7945717-.0021569 1.4556929 1.0468335-.5457051 1.6927163 1.4341236-1.0465938 1.4341235 1.0465938-.5457051-1.6927163 1.455693-1.0468335h-1.7945718z" fill="#faec32"/><path d="m20.4844321 24.9921911 1.4334046 1.0463542-.5449861-1.6922371 1.4556929-1.0468335h-1.7945717l-.5495397-1.7150046-.5495396 1.7188392-1.7955304-.0038346 1.4566516 1.0468335-.5457051 1.6922371z" fill="#faec32"/><path d="m23.026023 30.7344371-.5495396-1.7150047-.5495397 1.716922-1.7945717-.0019173 1.4556929 1.0463542-.5457051 1.692956 1.4341236-1.0485111 1.4341235 1.0485111-.5457051-1.692956 1.455693-1.0463542z" fill="#faec32"/><path d="m28.4670168 36.1751912-.5495396-1.7128477-.548581 1.7150047-1.7955304-.002157 1.4556929 1.0468335-.5447464 1.6927164 1.4341235-1.0465939 1.4331649 1.0465939-.5447464-1.6927164 1.4556929-1.0468335z" fill="#faec32"/><path d="m35.8796908 38.1471111-.5495396-1.7150047-.548581 1.716922-1.7955304-.0019173 1.4556929 1.0465938-.5447464 1.6927164 1.4341235-1.0468335 1.4331649 1.0468335-.5457051-1.6927164 1.4566516-1.0465938z" fill="#faec32"/><path d="m43.2923648 36.1751912-.548581-1.7128477-.5504983 1.7150047-1.793613-.002157 1.4547342 1.0468335-.5447464 1.6927164 1.4341235-1.0465939 1.4341236 1.0465939-.5466638-1.6927164 1.4566516-1.0468335z" fill="#faec32"/><path d="m48.7352759 30.7344371-.5504983-1.7150047-.5504983 1.716922-1.793613-.0019173 1.4566515 1.0463542-.5466637 1.692956 1.4341235-1.0485111 1.4341236 1.0485111-.5466638-1.692956 1.4566516-1.0463542z" fill="#faec32"/><path d="m52.5005692 23.278864h-1.7955304l-.5504982-1.7150047-.5485811 1.716922-1.7955303-.0019173 1.4566515 1.0465938-.5449861 1.6924767 1.432446-1.0485111 1.4341235 1.0485111-.5447465-1.6924767z" fill="#faec32"/><path d="m46.7504144 18.6033433 1.4341236-1.0463542 1.4343632 1.0463542-.5466638-1.6924767 1.4566516-1.0446766h-1.7938528l-.5504982-1.7150047-.5502587 1.716922-1.7938527-.0019173 1.4566515 1.0446766z" fill="#faec32"/><path d="m42.7643946 8.73080226-.5485811 1.71692194-1.7955303-.0038345 1.4547343 1.0485111-.5447465 1.6927163 1.4360408-1.0485111 1.4322063 1.0485111-.5447465-1.6927163 1.4566516-1.0485111h-1.7974476z" fill="#faec32"/><g fill="#194789"><path d="m85.0286194 14.1205089-1.5364583-4.13772445-1.5060214 4.13772445zm4.1456332 4.4118951h-2.4495617l-.9734976-2.5329632h-4.4571908l-.9205328 2.5329632h-2.3882088l4.3433525-11.15112542h2.3805396z"/><path d="m89.4937189 18.532404v-1.6661141l3.0273811-3.4760241c.4968146-.5677538.8644525-.9708614 1.1029139-1.2093227-.2485271.0153382-.5756626.0254039-.9811667.0304367l-2.8526693.0153383v-1.7722834h6.6788361v1.5134509l-3.0884943 3.5599049-1.0875757 1.178886c.5931577-.03523.9610353-.0532044 1.1029139-.0532044h3.3087416v1.8789319z"/><path d="m102.485191 18.532404v-11.15112542h8.268259v1.88636137h-6.016656v2.47232925h5.59821v1.8786923h-5.59821v3.0348106h6.229714v1.8789319z"/><path d="m118.177388 18.532404v-1.2095624c-.294302.4311477-.680873.7707455-1.159953 1.0195123-.479319.2482874-.985001.3724311-1.517525.3724311-.542829 0-1.029578-.1191109-1.460486-.3575722-.431148-.2382218-.742945-.5730263-.935392-1.0039345-.192926-.4309081-.289269-1.026702-.289269-1.7873819v-5.1114617h2.137525v3.7118492c0 1.1359869.039304 1.8317189.117912 2.0879151.078369.2561962.221686.4589483.42971.608496.207785.1497873.47165.2243214.791117.2243214.365001 0 .691897-.1001777.981166-.3005332.28879-.1998762.486989-.4486429.593158-.7453416.106649-.296459.159853-1.0228675.159853-2.1792255v-3.4074814h2.137525v8.0779693z"/><path d="m124.421961 18.532404h-2.137285v-8.0779693h1.985341v1.1482095c.339597-.5423498.645163-.8996824.916458-1.0722374.271295-.1723153.579258-.2585928.924128-.2585928.486749 0 .956002.1342094 1.407282.4031076l-.661701 1.8635937c-.360208-.2331889-.695013-.3499031-1.004174-.3499031-.299335 0-.552895.0824429-.76068.2470891-.208024.1651255-.371233.4630225-.490583.8939306-.119351.4309081-.178786 1.3337062-.178786 2.7076751z"/><path d="m131.032015 9.46559885 1.049709-2.27461005h2.395878l-2.09151 2.27461005zm-.897526 5.02758085c0 .801422.19029 1.4149508.57039 1.8410657.38058.4258752.849354.6389327 1.407282.6389327.557688 0 1.025743-.2130575 1.403447-.6389327.377703-.4261149.566555-1.0449162.566555-1.8559246 0-.7911166-.188852-1.3996126-.566555-1.8257275-.377704-.4258752-.845759-.6389327-1.403447-.6389327-.557928 0-1.026702.2130575-1.407282.6389327-.3801.4261149-.57039 1.0394041-.57039 1.8405864zm-2.190489-.1138384c0-.7098719.174711-1.3972159.524854-2.0613129.349664-.6643366.84528-1.1716962 1.486849-1.5213597.641569-.3501428 1.357672-.5248547 2.148789-.5248547 1.222264 0 2.223562.3968765 3.004613 1.1903897.780811.7935132 1.171457 1.796489 1.171457 3.0082083 0 1.2222644-.39448 2.2353059-1.182961 3.0388848-.78848.8038186-1.780911 1.2054882-2.977771 1.2054882-.740309 0-1.446586-.1672825-2.118352-.5018474-.672006-.3348045-1.18296-.8253879-1.532624-1.4719897-.350143-.6463622-.524854-1.4336443-.524854-2.3616066z"/><path d="m140.007509 14.3565737c0 .9075912.179985 1.578159.539954 2.0117033.359968.4335444.798785.6501968 1.315971.6501968.497054 0 .910227-.1989176 1.239999-.5969923.329532-.3978351.494178-1.0509077.494178-1.9587386 0-.8467177-.169918-1.475345-.509516-1.8863614-.339838-.410537-.76068-.6159253-1.262527-.6159253-.522458 0-.956003.2015537-1.300873.6046613s-.517186 1.0003396-.517186 1.7914562zm-2.114517-3.902139h1.99277v1.1865551c.258833-.4057438.608496-.7352759 1.049949-.9888359.440734-.2535599.93012-.3803399 1.467916-.3803399.938028 0 1.734177.367638 2.388209 1.1029139.654271.7352759.981406 1.7595814.981406 3.0731561 0 1.3488047-.329772 2.3973158-.989076 3.145054-.659064.7479779-1.457849 1.121847-2.395877 1.121847-.446247 0-.850792-.0886741-1.213158-.2662619-.362605-.1773482-.744383-.481716-1.144854-.9128637v4.069661h-2.137285z"/><path d="m151.926744 14.6530327c-.273931.0913103-.707236.2003555-1.300633.3268958-.593158.1270196-.981406.2511633-1.163787.3729105-.278725.1977192-.418207.4486429-.418207.7530107 0 .2993349.111202.5579277.334565.776018.223123.2178507.506881.3268959.85199.3268959.385134 0 .752772-.1265404 1.102914-.38034.258353-.1924467.428272-.4285115.509517-.7072357.055841-.1826207.083641-.5298875.083641-1.0422799zm-2.860099-1.7341775-1.939326-.3499031c.217851-.7808113.593158-1.3588704 1.125682-1.7341775.532524-.375307 1.323401-.5629606 2.37311-.5629606.953366 0 1.663238.1128797 2.129856.3383995.466377.2257594.794711.5123924.985001.8596593.19005.3472669.285195.9847616.285195 1.9129636l-.022768 2.4948573c0 .709872.034272 1.2335284.102814 1.5707295.068303.3372012.196281.698608.383935 1.0839808h-2.114517c-.055841-.1418785-.124384-.3525394-.205389-.6315033-.035469-.1265403-.060873-.2101815-.075972-.2509237-.365002.354936-.755647.6211979-1.171456.7985461-.41581.1775878-.85942.2662619-1.33107.2662619-.831859 0-1.487089-.2255198-1.966168-.6767989-.47932-.4515189-.718979-1.0219089-.718979-1.7114098 0-.4565517.109045-.8634939.327135-1.2208265.217851-.3575722.523657-.6315032.916459-.8215534.393042-.1902897.959597-.3561342 1.700146-.4982524.998901-.1874139 1.691278-.3626051 2.076411-.5246151v-.2130574c0-.4110164-.101376-.7038805-.304368-.8785924-.202512-.1751913-.585488-.2626671-1.148449-.2626671-.3801 0-.677039.0750135-.889856.2245612-.213058.1497873-.385373.411975-.517426.787282z"/><path d="m156.13349 18.532404h2.137285v-8.0779693h-2.137285zm0-9.17345371h2.137285v-1.97767171h-2.137285z"/><path d="m164.789279 7.38127858h2.251363v6.03942402c0 .9586387.027801 1.579597.083642 1.8635937.096103.456312.325697.8227517.688302 1.099319.362605.2763276.858221.4143716 1.487088.4143716.638933 0 1.120649-.1306146 1.445148-.3918436.3245-.2607498.519822-.5816541.585968-.961994.065667-.3803399.09874-1.0118432.09874-1.8942701v-6.16860062h2.251363v5.85704302c0 1.338739-.060634 2.2844361-.182381 2.8370913s-.346308 1.0195123-.673204 1.3993729c-.327135.3805796-.764275.6835094-1.311897.9092688-.547862.2255198-1.263007.3383995-2.145434.3383995-1.064808 0-1.872221-.1229454-2.42248-.3690759-.550258-.2456512-.985001-.5651175-1.304228-.9581594-.319706-.3930419-.530127-.8050169-.631503-1.2361647-.147151-.6389327-.220487-1.5819935-.220487-2.8294222z"/><path d="m183.386631 18.532404h-2.137045v-4.1226259c0-.8721216-.045775-1.4365201-.137086-1.6924767-.09131-.2559565-.239659-.4551137-.444808-.5972319-.205628-.1418785-.452717-.2130575-.741747-.2130575-.370274 0-.702442.1016157-.996265.3043678-.294302.2027521-.495856.4716503-.604901.8064549-.109045.3345649-.163448.9531265-.163448 1.8559246v3.6586447h-2.137525v-8.0779693h1.985341v1.1865551c.704599-.9128637 1.592299-1.3691758 2.66214-1.3691758.47165 0 .902558.0848396 1.293203.2547583.390406.1699187.685667.3868107.886022.6501967.200356.2638653.339838.5632002.418446.8977652.078369.3348045.117673.8138842.117673 1.4374787z"/><path d="m185.554832 18.532404h2.137285v-8.0779693h-2.137285zm0-9.17345371h2.137285v-1.97767171h-2.137285z"/><path d="m192.476443 9.46559885 1.04971-2.27461005h2.395878l-2.09151 2.27461005zm-.897525 5.02758085c0 .801422.19029 1.4149508.57039 1.8410657.38058.4258752.849354.6389327 1.407282.6389327.557688 0 1.025503-.2130575 1.403447-.6389327.377703-.4261149.566555-1.0449162.566555-1.8559246 0-.7911166-.188852-1.3996126-.566555-1.8257275-.377944-.4258752-.845759-.6389327-1.403447-.6389327-.557928 0-1.026702.2130575-1.407282.6389327-.3801.4261149-.57039 1.0394041-.57039 1.8405864zm-2.190729-.1138384c0-.7098719.174951-1.3972159.525094-2.0613129.349664-.6643366.84528-1.1716962 1.486849-1.5213597.641569-.3501428 1.357672-.5248547 2.148789-.5248547 1.222024 0 2.223562.3968765 3.004613 1.1903897.780811.7935132 1.171457 1.796489 1.171457 3.0082083 0 1.2222644-.39448 2.2353059-1.182961 3.0388848-.78848.8038186-1.78115 1.2054882-2.977771 1.2054882-.740549 0-1.446586-.1672825-2.118592-.5018474-.671766-.3348045-1.18272-.8253879-1.532384-1.4719897-.350143-.6463622-.525094-1.4336443-.525094-2.3616066z"/><path d="m82.8076931 29.1476503v1.7037407h-1.4604861v3.2555372c0 .6593038.0139002 1.0434782.0419404 1.1525234.0278005.1090451.0913103.1989175.1900501.2698568.0989795.0711789.2192886.1066485.3614068.1066485.1977193 0 .4841126-.0685426.85918-.2053883l.1826207 1.6582053c-.4968145.2130575-1.0597751.3194664-1.6884025.3194664-.3853728 0-.7328793-.0647081-1.0420403-.1941243-.3094006-.1291766-.5363584-.2964591-.6808731-.5018474-.1445148-.2053884-.2446926-.4831539-.3005333-.8328174-.0455353-.2485271-.068303-.7506141-.068303-1.5062611v-3.5217991h-.9811667v-1.7037407h.9811667v-1.6047612l2.1449542-1.2474287v2.8521899z"/><path d="m86.4356614 28.1588145 1.049949-2.2743704h2.3958779l-2.0915101 2.2743704zm2.3124762 5.1876735c-.273931.0910707-.7072357.2003555-1.3006331.3268958-.5933973.12678-.9814064.2511633-1.1637874.3729105-.2787242.1977192-.4184458.4486429-.4184458.752771 0 .299335.1114418.5579278.3348046.7760181.2231232.2180903.5068802.3271354.8519902.3271354.3851331 0 .752771-.1267799 1.1029138-.3803399.2583532-.1926864.4282719-.4285115.5095165-.7072357.0558407-.1826207.0836412-.5298876.0836412-1.04228zm-2.8600986-1.7344171-1.9395658-.3499032c.2180903-.7808112.5933973-1.3588704 1.1259212-1.7341774.5322841-.3750675 1.3234007-.5629606 2.3731101-.5629606.9533663 0 1.6629986.1128797 2.1298556.3383994.4663778.2259991.7947116.5123924.9850013.8596593.1900502.3475066.2851951.9850013.2851951 1.9132033l-.0227677 2.4948573c0 .709872.0340317 1.2332887.102814 1.5707295.068303.3372012.1962813.698608.3839348 1.0837411h-2.1145174c-.0560803-.1418785-.1243833-.3525394-.205628-.6315032-.03523-.1265404-.0606339-.2101816-.0757324-.2509237-.3650017.3551756-.755647.6211979-1.1716962.7987857-.4155699.1775878-.8594197.2662619-1.3308302.2662619-.8318588 0-1.4870884-.2257594-1.9661681-.6767989-.4793194-.4515189-.718979-1.0219089-.718979-1.7116495 0-.456312.1090451-.8634938.3271354-1.2208264.2178507-.3575723.5234168-.6315033.9164587-.8213138.3930418-.1902898.9595973-.3563739 1.7001457-.4984921.9989016-.1874139 1.6910388-.3623654 2.0764115-.5246151v-.2130574c0-.4110164-.101376-.7036408-.3043678-.8785924-.2025124-.1749516-.5854886-.2624274-1.1484492-.2624274-.3803399 0-.6770386.0747739-.890096.2243215-.2128178.1497873-.3851331.4122147-.5171856.7872821z"/><path d="m95.0006191 37.2256196h-2.137285v-8.0779693h1.9851011v1.1484492c.3395978-.5425895.6451639-.8999221.9164587-1.072477.2712947-.1720757.5792574-.2585928.9243673-.2585928.4867489 0 .9557629.134449 1.4072817.4033472l-.66194 1.863354c-.3602085-.2329492-.6947735-.3499031-1.0041741-.3499031-.299335 0-.5526552.0824429-.7604402.2473288-.2082642.1648859-.3714725.4627828-.4905834.893691-.1193505.4311477-.1787861 1.3339458-.1787861 2.7079147z"/><path d="m98.2638254 34.9208124 2.1449546-.3268958c.09131.4158096.276327.7314414.555291.9468954.278964.2154541.66937.3230613 1.171217.3230613.552895 0 .968704-.1011364 1.247429-.3041281.187653-.1418786.2816-.3319287.2816-.5703901 0-.1622496-.050808-.296459-.152184-.4033472-.106409-.1011364-.344871-.1948434-.714905-.2811208-1.724112-.38034-2.81696-.7278465-3.2785445-1.0420403-.6389327-.4361807-.9581594-1.04228-.9581594-1.8180584 0-.6998063.2763276-1.2879311.8289828-1.7646142.5526552-.4766832 1.4096781-.7151445 2.5710691-.7151445 1.10531 0 1.926864.1799844 2.464421.5399532.537317.3602085.907591.8927323 1.110582 1.5975715l-2.015537.3726708c-.086518-.3144335-.249966-.5550518-.490823-.7228136-.240858-.1670428-.58453-.2509237-1.030537-.2509237-.5632 0-.966068.078848-1.209563.2360648-.162489.1114417-.243494.2559565-.243494.4333047 0 .1521839.070939.2813605.213058.3882487.192686.1416388.858221.3419943 1.996604.6005871 1.138384.2588325 1.933095.5756626 2.384614.9509697.446247.3801002.66937.9102274.66937 1.5896626 0 .7405485-.309401 1.3766053-.927962 1.9093687-.618802.5322842-1.533822.7985461-2.746021.7985461-1.100278 0-1.971201-.2231232-2.6125303-.6693695-.641569-.4460067-1.0612131-1.0523457-1.2589323-1.8180584"/><path d="m112.799425 37.2256196h2.137285v-8.0779693h-2.137285zm0-9.173214h2.137285v-1.9776717h-2.137285zm-6.001318 1.0952447h1.186555v-.6084959c0-.6794352.072137-1.1865551.216892-1.5213597.144275-.3345649.410776-.6070579.798546-.8177188.388009-.2104212.878592-.3156318 1.47175-.3156318.608496 0 1.20453.0913103 1.787382.2736913l-.28879 1.4909229c-.339837-.0810049-.666973-.1217471-.981167-.1217471-.3094 0-.531325.0723772-.665774.2171317-.13421.1442751-.201554.421801-.201554.8328174v.57039h1.597332v1.6812127h-1.597332v6.3967566h-2.137285v-6.3967566h-1.186555z"/><path d="m124.543708 37.2256196h-2.137285v-4.1226259c0-.8721215-.045535-1.4362804-.136846-1.6924766-.09131-.2559566-.239659-.4551138-.445048-.597232-.205388-.1418785-.452477-.2128178-.741507-.2128178-.370274 0-.702442.1013761-.996505.3041282-.294062.2029917-.495856.4718899-.604661.8064548-.109045.3348046-.163688.9533662-.163688 1.8559246v3.6586447h-2.137525v-8.0779693h1.985581v1.1865551c.704599-.912624 1.592059-1.3691757 2.66214-1.3691757.47165 0 .902558.0850791 1.293203.2549979.390166.1699187.685667.386571.886022.6501967.200356.2636256.339838.5629606.418446.8977652.078369.3345649.117673.8136446.117673 1.4374787z"/><path d="m131.1691 33.346488c-.273931.0910707-.707236.2003555-1.300633.3268958-.593398.12678-.981407.2511633-1.164027.3729105-.278725.1977192-.418206.4486429-.418206.752771 0 .299335.111441.5579278.334804.7760181.223123.2180903.50688.3271354.85199.3271354.385133 0 .752771-.1267799 1.102914-.3803399.258353-.1926864.428272-.4285115.509517-.7072357.055601-.1826207.083641-.5298876.083641-1.04228zm-2.860099-1.7344171-1.939566-.3499032c.217851-.7808112.593398-1.3588704 1.125922-1.7341774.532284-.3750675 1.3234-.5629606 2.37311-.5629606.953126 0 1.662998.1128797 2.129855.3383994.466378.2259991.794712.5123924.985002.8596593.19005.3475066.284955.9850013.284955 1.9132033l-.022528 2.4948573c0 .709872.034032 1.2332887.102574 1.5707295.068543.3372012.196521.698608.384175 1.0837411h-2.114518c-.05608-.1418785-.124383-.3525394-.205628-.6315032-.03523-.1265404-.060873-.2101816-.075732-.2509237-.365241.3551756-.755647.6211979-1.171696.7987857-.41557.1775878-.85942.2662619-1.33083.2662619-.831859 0-1.487328-.2257594-1.966408-.6767989-.479319-.4515189-.718979-1.0219089-.718979-1.7116495 0-.456312.109045-.8634938.327375-1.2208264.217851-.3575723.523417-.6315033.916459-.8213138.393041-.1902898.959597-.3563739 1.700145-.4984921.998902-.1874139 1.691039-.3623654 2.076412-.5246151v-.2130574c0-.4110164-.101376-.7036408-.304368-.8785924-.202752-.1749516-.585489-.2624274-1.148449-.2624274-.38034 0-.677039.0747739-.890096.2243215-.212818.1497873-.385133.4122147-.517186.7872821z"/><path d="m142.723093 37.2256196h-2.137285v-4.1226259c0-.8721215-.045775-1.4362804-.137085-1.6924766-.091071-.2559566-.23966-.4551138-.444809-.597232-.205388-.1418785-.452717-.2128178-.741746-.2128178-.370274 0-.702203.1013761-.996266.3041282-.294302.2029917-.495855.4718899-.604661.8064548-.109285.3348046-.163688.9533662-.163688 1.8559246v3.6586447h-2.137524v-8.0779693h1.985341v1.1865551c.704839-.912624 1.592299-1.3691757 2.662379-1.3691757.471411 0 .902319.0850791 1.292964.2549979.390406.1699187.685666.386571.886022.6501967.200355.2636256.339837.5629606.418446.8977652.078608.3345649.117912.8136446.117912 1.4374787z"/><path d="m144.137804 34.9208124 2.144954-.3268958c.091311.4158096.276328.7314414.555532.9468954.278724.2154541.669369.3230613 1.170977.3230613.552895 0 .968704-.1011364 1.247428-.3041281.187894-.1418786.281601-.3319287.281601-.5703901 0-.1622496-.050808-.296459-.152184-.4033472-.106409-.1011364-.344871-.1948434-.714905-.2811208-1.724112-.38034-2.81696-.7278465-3.278545-1.0420403-.638932-.4361807-.958159-1.04228-.958159-1.8180584 0-.6998063.276328-1.2879311.828983-1.7646142.552655-.4766832 1.409678-.7151445 2.571069-.7151445 1.10531 0 1.926864.1799844 2.46442.5399532.537317.3602085.907592.8927323 1.110583 1.5975715l-2.015538.3726708c-.086517-.3144335-.249965-.5550518-.490823-.7228136-.240858-.1670428-.58453-.2509237-1.030536-.2509237-.5632 0-.966068.078848-1.209563.2360648-.162489.1114417-.243494.2559565-.243494.4333047 0 .1521839.070939.2813605.213058.3882487.192686.1416388.858221.3419943 1.996604.6005871 1.138384.2588325 1.933335.5756626 2.384614.9509697.446247.3801002.66937.9102274.66937 1.5896626 0 .7405485-.309401 1.3766053-.927963 1.9093687-.618801.5322842-1.533821.7985461-2.74602.7985461-1.100278 0-1.971201-.2231232-2.61253-.6693695-.641569-.4460067-1.061213-1.0523457-1.258933-1.8180584"/><path d="m152.695093 37.2256196v-1.6658744l3.027381-3.4760241c.496815-.5677538.864453-.971101 1.102674-1.2095624-.248287.0155779-.575423.0256436-.980927.0304368l-2.852669.0155779v-1.7725231h6.678836v1.5134509l-3.088494 3.559905-1.087576 1.1791256c.593158-.0354696.960796-.0534441 1.102914-.0534441h3.308742v1.8789319z"/><path d="m161.343692 37.2256196h2.137285v-8.0779693h-2.137285zm-.159853-9.0668051 1.049709-2.2743704h2.396118l-2.09199 2.2743704z"/><path d="m167.717681 37.2256196h-2.137285v-8.0779693h1.985101v1.1484492c.339598-.5425895.645164-.8999221.916459-1.072477.271294-.1720757.579257-.2585928.924367-.2585928.486749 0 .955763.134449 1.407282.4033472l-.66194 1.863354c-.360209-.2329492-.695013-.3499031-1.004174-.3499031-.299335 0-.552656.0824429-.760441.2473288-.208264.1648859-.371472.4627828-.490583.893691-.119351.4311477-.178786 1.3339458-.178786 2.7079147z"/><path d="m173.430209 33.186635c0 .8011823.19029 1.4149507.57015 1.840826.38058.4261149.849354.6389327 1.407522.6389327.557688 0 1.025504-.2128178 1.403207-.6389327.377704-.4258753.566556-1.0446766.566556-1.8559246 0-.7911166-.188852-1.3996125-.566556-1.8254878-.377703-.4258752-.845519-.6389327-1.403207-.6389327-.558168 0-1.026942.2130575-1.407522.6389327-.37986.4258753-.57015 1.0394041-.57015 1.8405864zm-2.190729-.114078c0-.709872.174712-1.3969763.524855-2.061313.349663-.6643366.845519-1.1714565 1.486848-1.52112.641569-.3501428 1.357912-.5250943 2.148789-.5250943 1.222264 0 2.223802.3971161 3.004613 1.1903896.780812.7937529 1.171457 1.796489 1.171457 3.008448 0 1.2220247-.39424 2.2350662-1.182721 3.0388848-.78848.8035789-1.78115 1.2054882-2.977771 1.2054882-.740549 0-1.446586-.1672825-2.118592-.502087-.672005-.334565-1.18296-.8251483-1.532623-1.4717502-.350143-.6466018-.524855-1.4338838-.524855-2.3618461z"/><path d="m180.389926 37.2256196v-1.6658744l3.027142-3.4760241c.497054-.5677538.864692-.971101 1.102914-1.2095624-.248288.0155779-.575423.0256436-.981167.0304368l-2.85243.0155779v-1.7725231h6.678597v1.5134509l-3.088495 3.559905-1.087575 1.1791256c.593397-.0354696.961035-.0534441 1.103153-.0534441h3.308742v1.8789319z"/><path d="m191.18324 28.1588145 1.049949-2.2743704h2.395878l-2.09175 2.2743704zm2.312236 5.1876735c-.273691.0910707-.707235.2003555-1.300633.3268958-.593157.12678-.981166.2511633-1.163787.3729105-.278724.1977192-.418206.4486429-.418206.752771 0 .299335.111442.5579278.334565.7760181s.50712.3271354.85199.3271354c.385133 0 .753011-.1267799 1.103153-.3803399.258354-.1926864.428272-.4285115.509517-.7072357.055601-.1826207.083401-.5298876.083401-1.04228zm-2.859859-1.7344171-1.939565-.3499032c.21785-.7808112.593157-1.3588704 1.125681-1.7341774.532524-.3750675 1.323641-.5629606 2.37311-.5629606.953367 0 1.663239.1128797 2.129856.3383994.466378.2259991.794951.5123924.985001.8596593.19005.3475066.285195.9850013.285195 1.9132033l-.022767 2.4948573c0 .709872.034271 1.2332887.102814 1.5707295.068303.3372012.196281.698608.383934 1.0837411h-2.114517c-.055841-.1418785-.124144-.3525394-.205388-.6315032-.03547-.1265404-.060874-.2101816-.075972-.2509237-.365002.3551756-.755647.6211979-1.171457.7987857s-.85942.2662619-1.33107.2662619c-.831859 0-1.487088-.2257594-1.966168-.6767989-.479319-.4515189-.718979-1.0219089-.718979-1.7116495 0-.456312.109045-.8634938.327136-1.2208264.21785-.3575723.523656-.6315033.916458-.8213138.393042-.1902898.959598-.3563739 1.700146-.4984921.998901-.1874139 1.691278-.3623654 2.076411-.5246151v-.2130574c0-.4110164-.101376-.7036408-.304128-.8785924s-.585728-.2624274-1.148449-.2624274c-.38034 0-.677278.0747739-.890096.2243215-.213057.1497873-.385373.4122147-.517186.7872821z"/><path d="m196.948972 34.9208124 2.145194-.3268958c.091071.4158096.276328.7314414.555292.9468954.278724.2154541.669369.3230613 1.171217.3230613.552655 0 .968704-.1011364 1.247428-.3041281.187654-.1418786.2816-.3319287.2816-.5703901 0-.1622496-.050807-.296459-.152183-.4033472-.106649-.1011364-.34511-.1948434-.715145-.2811208-1.724112-.38034-2.81696-.7278465-3.278305-1.0420403-.638932-.4361807-.958159-1.04228-.958159-1.8180584 0-.6998063.276088-1.2879311.828983-1.7646142.552415-.4766832 1.409438-.7151445 2.570829-.7151445 1.105311 0 1.926864.1799844 2.464421.5399532.537556.3602085.907591.8927323 1.110583 1.5975715l-2.015538.3726708c-.086278-.3144335-.249965-.5550518-.490823-.7228136-.240858-.1670428-.584291-.2509237-1.030537-.2509237-.562961 0-.966068.078848-1.209562.2360648-.16225.1114417-.243255.2559565-.243255.4333047 0 .1521839.070939.2813605.212818.3882487.192686.1416388.858461.3419943 1.996844.6005871 1.138384.2588325 1.933095.5756626 2.384614.9509697.446007.3801002.66937.9102274.66937 1.5896626 0 .7405485-.309401 1.3766053-.927963 1.9093687-.618801.5322842-1.534061.7985461-2.74602.7985461-1.100278 0-1.971441-.2231232-2.61277-.6693695-.64133-.4460067-1.060974-1.0523457-1.258933-1.8180584"/><path d="m208.510875 28.1588145 1.049709-2.2743704h2.395878l-2.09151 2.2743704zm2.312236 5.1876735c-.273931.0910707-.707236.2003555-1.300633.3268958-.593158.12678-.981406.2511633-1.163787.3729105-.278725.1977192-.418206.4486429-.418206.752771 0 .299335.111202.5579278.334564.7760181.223124.2180903.506881.3271354.851991.3271354.385133 0 .752771-.1267799 1.102913-.3803399.258354-.1926864.428272-.4285115.509517-.7072357.055841-.1826207.083641-.5298876.083641-1.04228zm-2.860098-1.7344171-1.939327-.3499032c.217851-.7808112.593158-1.3588704 1.125682-1.7341774.532524-.3750675 1.323401-.5629606 2.37311-.5629606.953366 0 1.663238.1128797 2.129856.3383994.466377.2259991.794711.5123924.985001.8596593.19005.3475066.285195.9850013.285195 1.9132033l-.022768 2.4948573c0 .709872.034272 1.2332887.102814 1.5707295.068303.3372012.196282.698608.383935 1.0837411h-2.114517c-.055841-.1418785-.124384-.3525394-.205389-.6315032-.035469-.1265404-.060873-.2101816-.075972-.2509237-.365001.3551756-.755647.6211979-1.171456.7987857-.41581.1775878-.85942.2662619-1.33107.2662619-.831859 0-1.487088-.2257594-1.966168-.6767989-.47932-.4515189-.718979-1.0219089-.718979-1.7116495 0-.456312.109045-.8634938.327135-1.2208264.217851-.3575723.523657-.6315033.916459-.8213138.393042-.1902898.959597-.3563739 1.700146-.4984921.998901-.1874139 1.691278-.3623654 2.076411-.5246151v-.2130574c0-.4110164-.101376-.7036408-.304368-.8785924-.202512-.1749516-.585488-.2624274-1.148449-.2624274-.3801 0-.677038.0747739-.889856.2243215-.213058.1497873-.385373.4122147-.517425.7872821z"/><path d="m217.250544 37.2256196-3.255537-8.0779693h2.243934l1.52112 4.1226259.441213 1.3766052c.116475-.3496634.19005-.5804557.220487-.6918975.071179-.228156.147151-.4565517.228396-.6847077l1.536218-4.1226259h2.198399l-3.209763 8.0779693z"/><path d="m228.150267 33.346488c-.273931.0910707-.707236.2003555-1.300633.3268958-.593398.12678-.981407.2511633-1.163788.3729105-.278724.1977192-.418446.4486429-.418446.752771 0 .299335.111442.5579278.334805.7760181.223123.2180903.50688.3271354.85199.3271354.385133 0 .752771-.1267799 1.102914-.3803399.258353-.1926864.428272-.4285115.509516-.7072357.055841-.1826207.083642-.5298876.083642-1.04228zm-2.860099-1.7344171-1.939566-.3499032c.21809-.7808112.593398-1.3588704 1.125921-1.7341774.532284-.3750675 1.323401-.5629606 2.373111-.5629606.953366 0 1.662998.1128797 2.129855.3383994.466378.2259991.794712.5123924.985001.8596593.190051.3475066.285195.9850013.285195 1.9132033l-.022767 2.4948573c0 .709872.034031 1.2332887.102814 1.5707295.068303.3372012.196281.698608.383935 1.0837411h-2.114518c-.05608-.1418785-.124383-.3525394-.205628-.6315032-.03523-.1265404-.060634-.2101816-.075732-.2509237-.365002.3551756-.755647.6211979-1.171696.7987857-.41557.1775878-.85942.2662619-1.330831.2662619-.831858 0-1.487088-.2257594-1.966168-.6767989-.479319-.4515189-.718979-1.0219089-.718979-1.7116495 0-.456312.109045-.8634938.327136-1.2208264.21785-.3575723.523416-.6315033.916458-.8213138.393042-.1902898.959598-.3563739 1.700146-.4984921.998902-.1874139 1.691039-.3623654 2.076412-.5246151v-.2130574c0-.4110164-.101376-.7036408-.304368-.8785924-.202513-.1749516-.585489-.2624274-1.148449-.2624274-.38034 0-.677039.0747739-.890096.2243215-.212818.1497873-.385134.4122147-.517186.7872821z"/><path d="m232.357013 37.2256196h2.137045v-11.1508857h-2.137045z"/></g></g></svg>