<svg height="48" viewBox="0 0 225 48" width="225" xmlns="http://www.w3.org/2000/svg"><g fill="none" fill-rule="evenodd"><path d="m0 48h70.6866649v-48h-70.6866649z" fill="#fffffe"/><path d="m1.35934972 46.6286673h67.96796548v-45.31221666h-67.96796548z" fill="#194789"/><path d="m33.895069 11.1892313 1.4341235-1.0465938 1.4346029 1.0465938-.5461844-1.69271635 1.4568912-1.04659384h-1.79577l-.5495397-1.71308741-.5495396 1.71500469-1.7945717-.00191728 1.4556929 1.04659384z" fill="#f7eb31"/><path d="m26.4730483 13.1831999 1.4341235-1.0465939 1.4334046 1.0465939-.5449861-1.6927164 1.4559325-1.0465938h-1.79577l-.5493-1.71500472-.5495396 1.71692202-1.7948114-.0019173 1.4556929 1.0465938z" fill="#f7eb31"/><path d="m22.4764834 14.171796-.5495397 1.716922-1.7945717-.0021569 1.4556929 1.0468335-.5457051 1.6927163 1.4341236-1.0465938 1.4341235 1.0465938-.5457051-1.6927163 1.455693-1.0468335h-1.7945718z" fill="#f7eb31"/><path d="m20.4844321 24.9921911 1.4334046 1.0463542-.5449861-1.6922371 1.4556929-1.0468335h-1.7945717l-.5495397-1.7150046-.5495396 1.7188392-1.7955304-.0038346 1.4566516 1.0468335-.5457051 1.6922371z" fill="#f7eb31"/><path d="m23.026023 30.7344371-.5495396-1.7150047-.5495397 1.716922-1.7945717-.0019173 1.4556929 1.0463542-.5457051 1.692956 1.4341236-1.0485111 1.4341235 1.0485111-.5457051-1.692956 1.455693-1.0463542z" fill="#f7eb31"/><path d="m28.4670168 36.1751912-.5495396-1.7128477-.548581 1.7150047-1.7955304-.002157 1.4556929 1.0468335-.5447464 1.6927164 1.4341235-1.0465939 1.4331649 1.0465939-.5447464-1.6927164 1.4556929-1.0468335z" fill="#f7eb31"/><path d="m35.8796908 38.1471111-.5495396-1.7150047-.548581 1.716922-1.7955304-.0019173 1.4556929 1.0465938-.5447464 1.6927164 1.4341235-1.0468335 1.4334046 1.0468335-.5459448-1.6927164 1.4566516-1.0465938z" fill="#f7eb31"/><path d="m43.2923648 36.1751912-.548581-1.7128477-.5504983 1.7150047-1.7933734-.002157 1.4544946 1.0468335-.5447464 1.6927164 1.4341235-1.0465939 1.4341236 1.0465939-.5466638-1.6927164 1.4566516-1.0468335z" fill="#f7eb31"/><path d="m48.7352759 30.7344371-.5504983-1.7150047-.5504983 1.716922-1.7933734-.0019173 1.4564119 1.0463542-.5464241 1.692956 1.4338839-1.0485111 1.4341236 1.0485111-.5466638-1.692956 1.4566516-1.0463542z" fill="#f7eb31"/><path d="m52.5008089 23.278864h-1.7955304l-.5504983-1.7150047-.548581 1.716922-1.79577-.0019173 1.4568912 1.0465938-.5452258 1.6924767 1.4326856-1.0485111 1.4338839 1.0485111-.5445068-1.6924767z" fill="#f7eb31"/><path d="m46.7506541 18.6033433 1.4338839-1.0463542 1.4343632 1.0463542-.5466638-1.6924767 1.4566516-1.0446766h-1.7938528l-.5504982-1.7150047-.5502587 1.716922-1.793613-.0019173 1.4564118 1.0446766z" fill="#f7eb31"/><path d="m42.7646342 8.73080226-.548581 1.71692194-1.79577-.0038345 1.4547343 1.0485111-.5447465 1.6927163 1.4362805-1.0485111 1.4319666 1.0485111-.5445068-1.6927163 1.4564119-1.0485111h-1.7974476z" fill="#f7eb31"/><g fill="#194789"><path d="m86.25352 14.4323061 2.1828204.6923769c-.3345649 1.2169918-.8912944 2.1207485-1.669709 2.7115096-.7784147.5910008-1.7658126.8862615-2.962673.8862615-1.4806175 0-2.6976094-.5059216-3.6509756-1.5172854-.9533663-1.0118432-1.4300494-2.3949193-1.4300494-4.1494678 0-1.8559246.4793194-3.29747758 1.4377185-4.32417966.958399-1.02694174 2.2185297-1.54053244 3.7803918-1.54053244 1.3641429 0 2.4720897.40334724 3.3238402 1.20956242.5071199.47692277.8872201 1.16139082 1.1410197 2.05388348l-2.228835.5322842c-.1318129-.5780592-.4067025-1.03437123-.8251483-1.36917581-.4182062-.33456492-.926764-.50184738-1.5249546-.50184738-.8268259 0-1.497154.29645903-2.011943.88985639-.514789.5931577-.7721835 1.5544327-.7721835 2.8828663 0 1.409918.2535599 2.4138524.7606798 3.0120429.5068802.5984303 1.166184.8975256 1.9776717.8975256.5981906 0 1.1132192-.1900502 1.5441273-.5706297.4309082-.3801003.7403088-.9785305.928202-1.7950511"/><path d="m92.0494498 14.4931797c0 .801422.1902898 1.4149508.57039 1.8410657.3805796.4258752.8493539.6389327 1.4072817.6389327.5576881 0 1.0255038-.2130575 1.4034471-.6389327.3777037-.4261149.5665555-1.0449162.5665555-1.8559246 0-.7911166-.1888518-1.3996126-.5665555-1.8257275-.3779433-.4258752-.845759-.6389327-1.4034471-.6389327-.5579278 0-1.0267021.2130575-1.4072817.6389327-.3801002.4261149-.57039 1.0394041-.57039 1.8405864zm-2.1904895-.1138384c0-.7098719.1747119-1.3972159.5248547-2.0613129.3496635-.6643366.8452797-1.1716962 1.4868487-1.5213597.6415689-.3501428 1.3576721-.5248547 2.1487887-.5248547 1.2222644 0 2.2235625.3968765 3.0046134 1.1903897.7808113.7935132 1.1714566 1.796489 1.1714566 3.0082083 0 1.2222644-.3944799 2.2353059-1.1829602 3.0388848-.7884804.8038186-1.7809111 1.2054882-2.9777716 1.2054882-.7403088 0-1.4465859-.1672825-2.1183519-.5018474-.6720058-.3348045-1.1829602-.8253879-1.5326237-1.4719897-.3501428-.6463622-.5248547-1.4336443-.5248547-2.3616066z"/><path d="m99.6255717 15.5579877h4.1985983v-2.1372851h-4.1985983z"/><path d="m104.120629 10.4544347h1.186794v-.60849593c0-.67943521.072138-1.18679475.216653-1.52135967.144515-.33480458.410777-.60705798.798786-.81771884.387769-.2104212.878352-.31587146 1.47175-.31587146.608496 0 1.20429.09131034 1.787382.27393101l-.28903 1.49092289c-.339837-.08100497-.666733-.12174712-.980927-.12174712-.309401 0-.531326.07237723-.665775.21689202s-.201793.4220407-.201793.83305706v.57039004h1.597811v1.680973h-1.597811v6.3969963h-2.137046v-6.3969963h-1.186794z"/><path d="m115.560784 18.532404v-1.2095624c-.294302.4311477-.680873.7707455-1.159953 1.0195123-.47932.2482874-.985001.3724311-1.517525.3724311-.542829 0-1.029578-.1191109-1.460486-.3575722-.431148-.2382218-.742945-.5730263-.935392-1.0039345-.192926-.4309081-.289269-1.026702-.289269-1.7873819v-5.1114617h2.137524v3.7118492c0 1.1359869.039305 1.8317189.117913 2.0879151.078369.2561962.221685.4589483.42971.608496.207785.1497873.47165.2243214.791116.2243214.365002 0 .691898-.1001777.981167-.3005332.28879-.1998762.486989-.4486429.593158-.7453416.106648-.296459.159853-1.0228675.159853-2.1792255v-3.4074814h2.137525v8.0779693z"/><path d="m127.106868 18.532404h-2.137285v-4.1226259c0-.8721216-.045535-1.4365201-.136845-1.6924767-.091311-.2559565-.23966-.4551137-.444809-.5972319-.205628-.1418785-.452717-.2130575-.741747-.2130575-.370274 0-.702442.1016157-.996265.3043678-.294302.2027521-.496095.4716503-.604901.8064549-.109045.3345649-.163448.9531265-.163448 1.8559246v3.6586447h-2.137525v-8.0779693h1.985341v1.1865551c.7046-.9128637 1.592299-1.3691758 2.66214-1.3691758.47165 0 .902558.0848396 1.293204.2547583.390405.1699187.685666.3868107.886022.6501967.200355.2638653.339837.5632002.418445.8977652.078369.3348045.117673.8138842.117673 1.4374787z"/><path d="m130.97905 14.3184678c0 .8620559.118871 1.48589.357332 1.8710231.344631.5579278.826347.836652 1.445148.836652.491782 0 .910228-.2092229 1.255098-.6274291.34487-.4184458.517186-1.0432386.517186-1.8750973 0-.9277227-.167283-1.5958939-.501848-2.0040343-.334804-.4081404-.763556-.6125702-1.285534-.6125702-.50712 0-.931797.2017935-1.274271.6046614-.341994.4033473-.513111 1.0056121-.513111 1.8067944zm5.70438 4.2139362h-1.985102v-1.1867948c-.329771.4615846-.718739.8052566-1.167622 1.0307763-.448643.2257595-.90136.3383995-1.357672.3383995-.927962 0-1.722674-.3738691-2.384614-1.121847-.6617-.7477382-.99267-1.7914561-.99267-3.1301951 0-1.3691758.322103-2.4097781.966308-3.1222863.643726-.7125083 1.45761-1.0686426 2.441413-1.0686426.902558 0 1.683609.3753071 2.342673 1.1256816v-4.01621702h2.137286z"/><path d="m143.590422 13.8010425c-.015339-.6185616-.174952-1.0890136-.47908-1.4108765-.304368-.321863-.674642-.483154-1.110823-.483154-.466377 0-.85199.1701584-1.156118.5097562-.304368.3398374-.453915.801422-.448643 1.3842743zm-.121748 2.1602924 2.129856.3573326c-.273931.7810509-.706277 1.3756466-1.296798 1.7840267-.591001.4081404-1.330112.6120908-2.217332.6120908-1.404885 0-2.444529-.4589483-3.118691-1.3766052-.532524-.7352759-.798786-1.6632382-.798786-2.7841266 0-1.3387389.350143-2.3870104 1.049949-3.145054s1.58439-1.1371852 2.654471-1.1371852c1.201893 0 2.149987.3968765 2.84476 1.1903897.694534.7935132 1.026702 2.0093068.996265 3.647141h-5.354716c.015338.6341396.187654 1.1273592.517186 1.4794193.329771.3525393.740548.5286892 1.23233.5286892.334804 0 .616165-.0913103.844321-.2736913.228156-.1826207.400471-.4766832.517185-.882427z"/><path d="m149.158195 14.3184678c0 .8620559.118872 1.48589.357333 1.8710231.34487.5579278.826586.836652 1.445387.836652.491543 0 .910228-.2092229 1.254859-.6274291.34487-.4184458.517185-1.0432386.517185-1.8750973 0-.9277227-.167043-1.5958939-.501847-2.0040343-.334565-.4081404-.763316-.6125702-1.285535-.6125702-.50712 0-.931557.2017935-1.274031.6046614-.342234.4033473-.513351 1.0056121-.513351 1.8067944zm5.70462 4.2139362h-1.985101v-1.1867948c-.329772.4615846-.71874.8052566-1.167622 1.0307763-.448643.2257595-.90136.3383995-1.357672.3383995-.927963 0-1.722914-.3738691-2.384854-1.121847-.661461-.7477382-.992431-1.7914561-.992431-3.1301951 0-1.3691758.322103-2.4097781.966068-3.1222863.643966-.7125083 1.457611-1.0686426 2.441653-1.0686426.902319 0 1.68337.3753071 2.342674 1.1256816v-4.01621702h2.137285z"/><path d="m163.328793 14.3184678c0 .8366519.131813 1.4554532.395678 1.8559246.369795.5679934.861816.8517505 1.475585.8517505.47165 0 .87332-.2013142 1.205488-.6046614.332168-.4031076.498253-1.0382058.498253-1.9052945 0-.9229294-.167283-1.5884644-.502087-1.9966048-.334565-.4081404-.763077-.6125702-1.285535-.6125702-.512153 0-.938028.1991572-1.277865.597232-.339598.3980747-.509517 1.0029757-.509517 1.8142238zm-2.121947 4.2139362v-11.15112542h2.137285v4.01621702c.659064-.7503745 1.439876-1.1256816 2.342674-1.1256816.983563 0 1.797687.3561343 2.441653 1.0686426.643965.7125082.966068 1.7356154.966068 3.0693215 0 1.3792415-.328334 2.4416529-.985241 3.1867548-.656668.745821-1.454015 1.1182521-2.392043 1.1182521-.461585 0-.916459-.1152763-1.365342-.3460686-.448643-.2305526-.835693-.5715883-1.159953-1.0231072v1.1867948z"/><path d="m169.801761 10.4544347h2.274131l1.932376 5.7350562 1.886362-5.7350562h2.213257l-2.85219 7.7736015-.509756 1.407042c-.187654.4718899-.36644.8318587-.536119 1.0803858-.169919.2482875-.365241.4498413-.585968.6044218-.220487.1548201-.492021.2751293-.813644.3614068-.322103.0862775-.686146.1294162-1.09165.1294162-.410777 0-.813885-.0431387-1.209323-.1294162l-.19029-1.6733039c.334805.0656667.636297.0989794.904955.0989794.497294 0 .864692-.1461924 1.103154-.4373789.238221-.2916659.420842-.6631384.547622-1.1144175z"/><path d="m82.8076931 29.1476503v1.7037407h-1.4604861v3.2555372c0 .6593038.0139002 1.0434782.0419404 1.1525234.0278005.1090451.0913103.1989175.1900501.2698568.0989795.0711789.2192886.1066485.3614068.1066485.1977193 0 .4841126-.0685426.85918-.2053883l.1826207 1.6582053c-.4968145.2130575-1.0597751.3194664-1.6884025.3194664-.3853728 0-.7328793-.0647081-1.0420403-.1941243-.3094006-.1291766-.5363584-.2964591-.6808731-.5018474-.1445148-.2053884-.2446926-.4831539-.3005333-.8328174-.0455353-.2485271-.068303-.7506141-.068303-1.5062611v-3.5217991h-.9811667v-1.7037407h.9811667v-1.6047612l2.1449542-1.2474287v2.8521899z"/><path d="m86.4208025 26.0747339v4.0996185c.6895009-.8059755 1.5134509-1.2093227 2.4718499-1.2093227.4917817 0 .9358711.0913103 1.3313096.273931s.6933354.4158095.8936909.6998063c.2001159.2839967.3372012.5984302.4105371.9430608.0735755.3451099.1102434.8797907.1102434 1.6050009v4.7387909h-2.137285v-4.2671406c0-.8469574-.0407422-1.384514-.1215075-1.6124304-.0812446-.2283957-.2245611-.4095784-.4297098-.5440275-.205628-.1342094-.4630225-.2015538-.7721835-.2015538-.3551757 0-.6720058.0862775-.9509696.2588325-.2787242.1720756-.4829143.4321064-.6123305.7796129-.1291766.3472669-.193645.860618-.193645 1.5400532v4.0466537h-2.1375248v-11.1508857z"/><path d="m98.6060594 32.4944978c-.0153382-.6185616-.1749516-1.0890136-.4790797-1.4111162-.3043678-.321863-.674642-.4829143-1.1108226-.4829143-.4663778 0-.8519902.1701584-1.1561184.5097562-.3043678.3398374-.4539154.8011823-.4486429 1.3842743zm-.1217471 2.1602924 2.1298557.3573326c-.273931.7810509-.7062772 1.3756466-1.2970383 1.783787s-1.3298716.6123305-2.2173314.6123305c-1.4046454 0-2.4442891-.4589483-3.1184518-1.3766052-.5325238-.7355156-.7987857-1.6634779-.7987857-2.7841266 0-1.338739.3501428-2.3870104 1.049949-3.1452936.6998063-.7580436 1.5843902-1.1371852 2.6544707-1.1371852 1.2016536 0 2.1497473.3971161 2.8447604 1.1903896.6945341.7937529 1.0267021 2.0095464.9962651 3.6473807h-5.3549557c.0155778.6338999.1878932 1.1271195.5174252 1.4794192.3297717.3522998.7403088.5286893 1.2323301.5286893.3348046 0 .6159254-.0913103.8443211-.273931.228156-.182381.4002317-.4764435.5171856-.8821873z"/><path d="m106.813205 37.2256196v-11.1508857h8.268259v1.8863613h-6.016896v2.4720897h5.598451v1.8786922h-5.598451v3.0348106h6.229714v1.8789319z"/><path d="m122.505402 37.2256196v-1.2095624c-.294062.4311478-.680873.7709852-1.159953 1.0195123-.479319.2482874-.985001.3726708-1.517525.3726708-.542589 0-1.029578-.1191109-1.460246-.3575722-.431148-.2382218-.742945-.5730264-.935632-1.0041741-.192686-.4309081-.289269-1.0267021-.289269-1.7873819v-5.1114618h2.137525v3.7118492c0 1.1362266.039304 1.8319586.117913 2.0879152.078608.2564358.221685.4589483.429709.6084959.208025.1497873.471651.2245611.791117.2245611.365241 0 .692137-.1001777.981406-.3005332.28879-.2001158.486749-.4486429.593158-.7453416.106649-.2966987.159853-1.0231072.159853-2.1792255v-3.4077211h2.137285v8.0779693z"/><path d="m128.750215 37.2256196h-2.137285v-8.0779693h1.985101v1.1484492c.339598-.5425895.645403-.8999221.916458-1.072477.271295-.1720757.579258-.2585928.924368-.2585928.486749 0 .955763.134449 1.407281.4033472l-.66194 1.863354c-.360208-.2329492-.694773-.3499031-1.003934-.3499031-.299335 0-.552895.0824429-.76068.2473288-.208024.1648859-.371472.4627828-.490583.893691-.119351.4311477-.178786 1.3339458-.178786 2.7079147z"/><path d="m134.462743 33.186635c0 .8011823.19029 1.4149507.57039 1.840826.38058.4261149.849354.6389327 1.407282.6389327.557688 0 1.025503-.2128178 1.403207-.6389327.377704-.4258753.566795-1.0446766.566795-1.8559246 0-.7911166-.189091-1.3996125-.566795-1.8254878-.377704-.4258752-.845519-.6389327-1.403207-.6389327-.557928 0-1.026702.2130575-1.407282.6389327-.3801.4258753-.57039 1.0394041-.57039 1.8405864zm-2.190729-.114078c0-.709872.174951-1.3969763.525094-2.061313.349664-.6643366.84528-1.1714565 1.486849-1.52112.641569-.3501428 1.357672-.5250943 2.148789-.5250943 1.222024 0 2.223562.3971161 3.004613 1.1903896.780572.7937529 1.171217 1.796489 1.171217 3.008448 0 1.2220247-.39424 2.2350662-1.182721 3.0388848-.78848.8035789-1.78115 1.2054882-2.977771 1.2054882-.740549 0-1.446586-.1672825-2.118592-.502087-.672006-.334565-1.18272-.8251483-1.532384-1.4717502-.350143-.6466018-.525094-1.4338838-.525094-2.3618461z"/><path d="m144.335524 33.0497893c0 .9075912.179984 1.578159.540192 2.011943.359969.4333047.798547.6501968 1.315732.6501968.497294 0 .910228-.1989176 1.239999-.5969923.329532-.3980747.494418-1.0509077.494418-1.9587386 0-.8469573-.169918-1.4755847-.509516-1.8863614-.339838-.410537-.76068-.616165-1.262767-.616165-.522458 0-.955763.2015538-1.300873.604901-.34463.402868-.517185 1.0003395-.517185 1.7912165zm-2.114278-3.902139h1.99253v1.1865551c.258833-.4055042.608496-.7350362 1.04995-.9888358.440973-.2533203.930358-.3803399 1.467915-.3803399.938028 0 1.734417.3678776 2.388448 1.1031535.654271.7350362.981407 1.7595814.981407 3.0729164 0 1.3488047-.329772 2.3973159-.989076 3.1450541-.659064.7479778-1.457849 1.1220866-2.395877 1.1220866-.446486 0-.850792-.0886741-1.213397-.2662619-.362366-.1775878-.744144-.481716-1.144615-.9128637v4.0694214h-2.137285z"/><path d="m156.596992 32.4944978c-.015098-.6185616-.174712-1.0890136-.479079-1.4111162-.304129-.321863-.674403-.4829143-1.110823-.4829143-.466378 0-.851751.1701584-1.156118.5097562-.304129.3398374-.453676.8011823-.448643 1.3842743zm-.121747 2.1602924 2.129856.3573326c-.273692.7810509-.706038 1.3756466-1.296799 1.783787-.591001.4081404-1.330111.6123305-2.217331.6123305-1.404646 0-2.444289-.4589483-3.118692-1.3766052-.532284-.7355156-.798785-1.6634779-.798785-2.7841266 0-1.338739.350142-2.3870104 1.049949-3.1452936.699806-.7580436 1.58463-1.1371852 2.65447-1.1371852 1.201894 0 2.149987.3971161 2.845 1.1903896.694534.7937529 1.026703 2.0095464.996266 3.6473807h-5.354956c.015338.6338999.187653 1.1271195.517185 1.4794192.329772.3522998.740549.5286893 1.23257.5286893.334565 0 .615926-.0913103.844082-.273931.228156-.182381.400471-.4764435.517185-.8821873z"/><path d="m164.918456 33.346488c-.273931.0910707-.707236.2003555-1.300633.3268958-.593158.12678-.981407.2511633-1.163788.3729105-.278724.1977192-.418206.4486429-.418206.752771 0 .299335.111202.5579278.334565.7760181.223123.2180903.50688.3271354.85199.3271354.385133 0 .752771-.1267799 1.102914-.3803399.258353-.1926864.428272-.4285115.509517-.7072357.05584-.1826207.083641-.5298876.083641-1.04228zm-2.860099-1.7344171-1.939326-.3499032c.217851-.7808112.593158-1.3588704 1.125682-1.7341774.532523-.3750675 1.3234-.5629606 2.37311-.5629606.953366 0 1.663238.1128797 2.129855.3383994.466378.2259991.794712.5123924.985002.8596593.19005.3475066.285195.9850013.285195 1.9132033l-.022768 2.4948573c0 .709872.034271 1.2332887.102814 1.5707295.068303.3372012.196281.698608.383935 1.0837411h-2.114518c-.05584-.1418785-.124383-.3525394-.205388-.6315032-.03547-.1265404-.060874-.2101816-.075972-.2509237-.365002.3551756-.755647.6211979-1.171696.7987857-.41557.1775878-.85918.2662619-1.330831.2662619-.831858 0-1.487088-.2257594-1.966168-.6767989-.479319-.4515189-.718979-1.0219089-.718979-1.7116495 0-.456312.109046-.8634938.327136-1.2208264.217851-.3575723.523417-.6315033.916459-.8213138.393041-.1902898.959597-.3563739 1.700145-.4984921.998902-.1874139 1.691279-.3623654 2.076412-.5246151v-.2130574c0-.4110164-.101376-.7036408-.304368-.8785924-.202512-.1749516-.585489-.2624274-1.148449-.2624274-.3801 0-.677039.0747739-.889857.2243215-.213057.1497873-.385372.4122147-.517425.7872821z"/><path d="m176.472689 37.2256196h-2.137285v-4.1226259c0-.8721215-.045775-1.4362804-.136846-1.6924766-.09131-.2559566-.23966-.4551138-.445048-.597232-.205388-.1418785-.452477-.2128178-.741747-.2128178-.370034 0-.702203.1013761-.996265.3041282-.294062.2029917-.495856.4718899-.604661.8064548-.109046.3348046-.163688.9533662-.163688 1.8559246v3.6586447h-2.137525v-8.0779693h1.985341v1.1865551c.704839-.912624 1.592299-1.3691757 2.66238-1.3691757.47165 0 .902318.0850791 1.292964.2549979.390405.1699187.685906.386571.886261.6501967.200356.2636256.339838.5629606.418446.8977652.078369.3345649.117673.8136446.117673 1.4374787z"/><path d="m182.968664 26.0747339h2.251603v6.039424c0 .9583991.027561 1.579597.083641 1.863354.096104.4565517.325698.8229914.688303 1.099319.362366.2765673.858221.4146113 1.487088.4146113.638933 0 1.120409-.1306146 1.445148-.3918436.32426-.2609894.519822-.5818937.585729-.9622337.065906-.3803399.098739-1.0116035.098739-1.8940304v-6.1686006h2.251603v5.8568033c0 1.338739-.060873 2.2846758-.182621 2.8370913-.121747.5528949-.346068 1.0195123-.672964 1.3996126-.327375.3805796-.764514.6835094-1.312137.9090292-.547622.2255197-1.263006.3383994-2.145194.3383994-1.065047 0-1.872461-.1229454-2.422719-.3688362-.550019-.2456512-.985002-.5651175-1.304228-.9583991-.319706-.3930419-.530128-.8047772-.631504-1.235925-.147151-.6389327-.220487-1.5822332-.220487-2.8296618z"/><path d="m201.566016 37.2256196h-2.137285v-4.1226259c0-.8721215-.045535-1.4362804-.136845-1.6924766-.091311-.2559566-.23966-.4551138-.445049-.597232-.205388-.1418785-.452477-.2128178-.741507-.2128178-.370274 0-.702442.1013761-.996505.3041282-.294062.2029917-.495855.4718899-.604661.8064548-.109045.3348046-.163687.9533662-.163687 1.8559246v3.6586447h-2.137525v-8.0779693h1.98558v1.1865551c.7046-.912624 1.59206-1.3691757 2.66214-1.3691757.47165 0 .902558.0850791 1.292964.2549979.390406.1699187.685906.386571.886262.6501967.200355.2636256.339837.5629606.418445.8977652.078369.3345649.117673.8136446.117673 1.4374787z"/><path d="m203.733978 37.2256196h2.137285v-8.0779693h-2.137285zm0-9.173214h2.137285v-1.9776717h-2.137285z"/><path d="m209.758303 33.186635c0 .8011823.19029 1.4149507.570151 1.840826.380579.4261149.849354.6389327 1.407521.6389327.557688 0 1.025504-.2128178 1.403207-.6389327.377704-.4258753.566556-1.0446766.566556-1.8559246 0-.7911166-.188852-1.3996125-.566556-1.8254878-.377703-.4258752-.845519-.6389327-1.403207-.6389327-.558167 0-1.026942.2130575-1.407521.6389327-.379861.4258753-.570151 1.0394041-.570151 1.8405864zm-2.190729-.114078c0-.709872.174712-1.3969763.524855-2.061313.349663-.6643366.845519-1.1714565 1.487088-1.52112.641329-.3501428 1.357672-.5250943 2.148549-.5250943 1.222265 0 2.223802.3971161 3.004614 1.1903896.780811.7937529 1.171456 1.796489 1.171456 3.008448 0 1.2220247-.39424 2.2350662-1.18272 3.0388848-.788481.8035789-1.781151 1.2054882-2.977772 1.2054882-.740548 0-1.446586-.1672825-2.118592-.502087-.672005-.334565-1.18296-.8251483-1.532623-1.4717502-.350143-.6466018-.524855-1.4338838-.524855-2.3618461z"/><path d="m224.925166 37.2256196h-2.137285v-4.1226259c0-.8721215-.045775-1.4362804-.136845-1.6924766-.091311-.2559566-.23966-.4551138-.445049-.597232-.205388-.1418785-.452717-.2128178-.741746-.2128178-.370274 0-.702203.1013761-.996266.3041282-.294062.2029917-.495855.4718899-.604661.8064548-.109045.3348046-.163687.9533662-.163687 1.8559246v3.6586447h-2.137525v-8.0779693h1.985341v1.1865551c.704839-.912624 1.592299-1.3691757 2.662379-1.3691757.471411 0 .902319.0850791 1.292964.2549979.390406.1699187.685906.386571.886022.6501967.200355.2636256.339837.5629606.418685.8977652.078369.3345649.117673.8136446.117673 1.4374787z"/></g></g></svg>