<?xml version="1.0" encoding="UTF-8"?>
<svg width="301px" height="60px" viewBox="0 0 301 60" version="1.1" xmlns="http://www.w3.org/2000/svg" xmlns:xlink="http://www.w3.org/1999/xlink">
    <title>Combined Shape</title>
    <g id="Page-1" stroke="none" stroke-width="1" fill="none" fill-rule="evenodd">
        <g id="MOL_MUEA_logo_P1935EC_piros" transform="translate(-68, -243)" fill="#CB1F4F">
            <path d="M238.449428,267.615111 L238.408949,261.650682 L235.529329,266.512396 L234.11953,266.512396 L231.239212,261.814694 L231.239212,267.615111 L228.298175,267.615111 L228.298175,256.380685 L230.929335,256.380685 L235.957852,264.632896 L235.446975,261.895652 L238.716034,256.380685 L241.329746,256.380685 L241.370226,267.615111 L238.449428,267.615111 Z M251.889772,261.998177 C251.889772,261.358184 251.757167,260.792868 251.491259,260.302928 C251.226049,259.812988 250.861037,259.438205 250.398316,259.179276 C249.935594,258.921045 249.421227,258.791232 248.856609,258.791232 C248.291294,258.791232 247.780416,258.921045 247.323976,259.179276 C246.868234,259.438205 246.503919,259.812988 246.23173,260.302928 C245.959541,260.792868 245.823447,261.358184 245.823447,261.998177 C245.823447,262.951536 246.112386,263.724134 246.690962,264.316669 C247.269538,264.909203 247.995375,265.204423 248.86638,265.204423 C249.738083,265.204423 250.46043,264.909203 251.031329,264.316669 C251.603624,263.724134 251.889772,262.951536 251.889772,261.998177 M248.86638,267.839771 C247.682009,267.839771 246.612795,267.58852 245.660133,267.084621 C244.706774,266.580723 243.960697,265.882802 243.423298,264.990162 C242.885202,264.098917 242.616502,263.100891 242.616502,261.998177 C242.616502,260.309907 243.209037,258.914066 244.393408,257.810654 C245.577779,256.70794 247.069235,256.155885 248.86638,256.155885 C250.664223,256.155885 252.155679,256.70794 253.34005,257.810654 C254.524421,258.914066 255.116956,260.309907 255.116956,261.998177 C255.116956,263.686446 254.524421,265.082287 253.34005,266.1857 C252.155679,267.288414 250.664223,267.839771 248.86638,267.839771 M256.342783,256.380615 L259.529488,256.380615 L259.529488,263.958635 L257.731645,265.103225 L264.880445,265.103225 L264.880445,267.615041 L256.342783,267.615041 L256.342783,256.380615 Z M266.126233,262.61137 L270.823935,262.61137 L270.823935,260.262169 L266.126233,260.262169 L266.126233,262.61137 Z M287.0829,267.839562 C285.367412,267.839562 284.066488,267.288205 283.181525,266.18549 L284.925628,264.257834 C284.925628,264.257834 285.367412,264.653555 285.571204,264.816868 C285.980186,265.143495 286.408709,265.306808 286.85817,265.306808 C287.798269,265.306808 288.267969,264.76243 288.267969,263.672977 L288.267969,259.812778 L290.494335,258.831502 L284.351239,258.831502 L284.351239,257.688309 L284.351239,256.380406 L291.413497,256.380406 L291.413497,263.468486 C291.413497,264.435804 291.249485,265.246089 290.922859,265.899343 C290.596232,266.552596 290.109083,267.039745 289.462809,267.359393 C288.815139,267.679738 288.022301,267.839562 287.0829,267.839562 M308.427472,265.163944 L308.427472,267.615041 L299.399173,267.615041 L299.399173,256.380615 L308.223679,256.380615 L308.223679,258.831712 L300.563304,258.831712 L302.5447,259.79205 L302.5447,260.732149 L307.549488,260.732149 L307.549488,263.100891 L302.5447,263.100891 L302.5447,265.163944 L308.427472,265.163944 Z M314.943257,267.839562 C313.826585,267.839562 312.873225,267.638561 312.083877,267.237256 C311.293831,266.835952 310.691526,266.239928 310.276263,265.449882 C309.861001,264.660534 309.65302,263.714154 309.65302,262.610742 L309.65302,256.380406 L312.839725,256.380406 L312.839725,262.508845 C312.839725,264.306688 313.547416,265.204912 314.963497,265.204912 C316.380276,265.204912 317.087967,264.306688 317.087967,262.508845 L317.087967,256.380406 L320.213255,256.380406 L320.213255,262.610742 C320.213255,264.27249 319.749836,265.558758 318.824393,266.471638 C317.897555,267.38382 316.604308,267.839562 314.943257,267.839562 M328.996863,260.52717 C328.996863,259.996052 328.83006,259.587769 328.495756,259.301621 C328.162848,259.015474 327.668721,258.873098 327.015467,258.873098 L323.297645,258.873098 L325.258801,259.771322 L325.258801,262.1617 L327.015467,262.1617 C327.668721,262.1617 328.162848,262.022115 328.495756,261.742249 C328.83006,261.463779 328.996863,261.058287 328.996863,260.52717 L328.996863,260.52717 Z M329.017103,267.61525 L326.995227,264.633036 L325.258801,264.633036 L325.258801,267.61525 L322.072096,267.61525 L322.072096,256.380824 L327.21926,256.380824 C328.744216,256.380824 329.956504,256.752118 330.855426,257.494007 C331.753649,258.236595 332.20311,259.247882 332.20311,260.52717 C332.20311,262.188918 331.4682,263.37329 329.997681,264.080981 L332.428538,267.61525 L329.017103,267.61525 Z M351.873161,256.380615 C353.398117,256.380615 354.610405,256.751909 355.509327,257.494496 C356.40755,258.236385 356.857011,259.247672 356.857011,260.52696 C356.857011,261.806947 356.40755,262.818233 355.509327,263.560821 C354.610405,264.30271 353.398117,264.674004 351.873161,264.674004 L349.912702,264.674004 L349.912702,267.615041 L346.725998,267.615041 L346.725998,256.380615 L351.873161,256.380615 Z M363.55635,256.380685 L368.5402,267.615111 L365.231359,267.615111 L364.352677,265.429922 L359.594255,265.429922 L358.715573,267.615111 L355.468149,267.615111 L360.431062,256.380685 L363.55635,256.380685 Z M361.962997,259.485733 L360.533656,263.080721 L365.741539,263.080721 L363.086649,262.304634 L361.962997,259.485733 Z M351.669368,258.872889 L347.890129,258.872889 L349.912702,259.710394 L349.912702,262.16149 L351.669368,262.16149 C352.322622,262.16149 352.81675,262.021906 353.149658,261.742738 C353.483962,261.46357 353.650765,261.058776 353.650765,260.52696 C353.650765,259.996541 353.483962,259.587559 353.149658,259.301412 C352.81675,259.015265 352.322622,258.872889 351.669368,258.872889 Z M277.339651,267.839562 C276.222978,267.839562 275.269619,267.638561 274.480271,267.237256 C273.690225,266.835952 273.08792,266.239928 272.672657,265.449882 C272.257394,264.660534 272.049414,263.714154 272.049414,262.610742 L272.049414,256.380406 L275.236119,256.380406 L275.236119,262.508845 C275.236119,264.306688 275.94381,265.204912 277.359891,265.204912 C278.776669,265.204912 279.484361,264.306688 279.484361,262.508845 L279.484361,256.380406 L282.609649,256.380406 L282.609649,262.610742 C282.609649,264.27249 282.146229,265.558758 281.220787,266.471638 C280.293949,267.38382 279.000702,267.839562 277.339651,267.839562 M278.281634,255.223812 L276.095747,255.223812 L278.240457,252.773413 L281.293161,252.772715 L278.281634,255.223812 Z M342.273823,261.998177 C342.273823,261.358184 342.141218,260.792868 341.875311,260.302928 C341.610101,259.812988 341.245089,259.438205 340.782367,259.179276 C340.319646,258.921045 339.805279,258.791232 339.240661,258.791232 C338.675345,258.791232 338.164468,258.921045 337.708028,259.179276 C337.252285,259.438205 336.887971,259.812988 336.615782,260.302928 C336.343593,260.792868 336.207499,261.358184 336.207499,261.998177 C336.207499,262.951536 336.496438,263.724134 337.075014,264.316669 C337.65359,264.909203 338.379427,265.204423 339.250432,265.204423 C340.122134,265.204423 340.844482,264.909203 341.415381,264.316669 C341.987676,263.724134 342.273823,262.951536 342.273823,261.998177 M339.250432,267.839771 C338.066061,267.839771 336.996847,267.58852 336.044185,267.084621 C335.090826,266.580723 334.344749,265.882802 333.80735,264.990162 C333.269253,264.098917 333.000554,263.100891 333.000554,261.998177 C333.000554,260.309907 333.593088,258.914066 334.777459,257.810654 C335.961831,256.70794 337.453287,256.155885 339.250432,256.155885 C341.048275,256.155885 342.539731,256.70794 343.724102,257.810654 C344.908473,258.914066 345.501008,260.309907 345.501008,261.998177 C345.501008,263.686446 344.908473,265.082287 343.724102,266.1857 C342.539731,267.288414 341.048275,267.839771 339.250432,267.839771 M340.638875,255.223812 L338.452988,255.223812 L340.597697,252.773413 L343.649704,252.773413 L340.638875,255.223812 Z M233.363891,282.372081 L238.571774,282.372081 L235.916884,281.595993 L234.793232,278.777092 L233.363891,282.372081 Z M238.061594,286.90647 L237.182912,284.721281 L232.42449,284.721281 L231.545808,286.90647 L228.298385,286.90647 L233.261297,275.672044 L236.386585,275.672044 L241.370435,286.90647 L238.061594,286.90647 Z M242.616363,275.671905 L245.81912,275.671905 L245.803068,283.249925 L244.005224,284.394515 L251.154024,284.394515 L251.154024,286.90633 L242.616363,286.90633 L242.616363,275.671905 Z M257.466086,282.372081 L262.673969,282.372081 L260.01908,281.595993 L258.895428,278.777092 L257.466086,282.372081 Z M262.163789,286.90647 L261.285107,284.721281 L256.526685,284.721281 L255.648004,286.90647 L252.40058,286.90647 L257.363492,275.672044 L260.48878,275.672044 L265.47263,286.90647 L262.163789,286.90647 Z M271.661649,281.45285 C272.314903,281.45285 272.809031,281.313266 273.141939,281.034097 C273.476243,280.754929 273.643046,280.350135 273.643046,279.81832 C273.643046,279.2879 273.476243,278.878919 273.141939,278.592772 C272.809031,278.306624 272.314903,278.164248 271.661649,278.164248 L267.88241,278.164248 L269.904983,279.001753 L269.904983,281.45285 L271.661649,281.45285 Z M271.865442,275.671974 C273.390398,275.671974 274.602686,276.043268 275.501608,276.785855 C276.399831,277.527745 276.849292,278.539032 276.849292,279.81832 C276.849292,281.098306 276.399831,282.109593 275.501608,282.85218 C274.602686,283.59407 273.390398,283.965363 271.865442,283.965363 L269.904983,283.965363 L269.904983,286.9064 L266.718279,286.9064 L266.718279,275.671974 L271.865442,275.671974 Z M285.959039,278.184767 L282.507124,278.184767 L282.507124,275.672254 L292.577419,275.672254 L292.577419,278.184767 L287.36814,278.184767 L289.145744,279.226065 L289.145744,286.906679 L285.959039,286.906679 L285.959039,278.184767 Z M296.578108,275.671905 L299.21555,281.861063 L298.786329,285.108487 L302.7896,275.671905 L305.935128,275.671905 L301.114591,286.90633 L297.989303,286.90633 L293.189704,275.671905 L296.578108,275.671905 Z M311.736034,275.672044 L316.719884,286.90647 L313.411043,286.90647 L312.532361,284.721281 L307.773939,284.721281 L306.895257,286.90647 L303.647833,286.90647 L308.610746,275.672044 L311.736034,275.672044 Z M310.142681,278.777092 L308.71334,282.372081 L313.921223,282.372081 L311.266333,281.595993 L310.142681,278.777092 Z M328.66891,275.671905 L328.66891,286.90633 L326.034261,286.90633 L321.09089,280.921662 L321.09089,286.90633 L317.965602,286.90633 L317.965602,275.671905 L320.58071,275.671905 L327.769989,284.251441 L325.543623,280.533619 L325.543623,275.671905 L328.66891,275.671905 Z M341.659863,275.671905 L337.370443,282.882819 L337.370443,286.90633 L334.184436,286.90633 L334.184436,282.821402 L329.894319,275.671905 L333.270859,275.671905 L335.389047,279.225716 L335.021243,281.820584 L338.574356,275.671905 L341.659863,275.671905 Z M310.887502,274.370283 L308.701615,274.370283 L310.846325,271.919884 L313.898331,271.919884 L310.887502,274.370283 Z M278.095569,286.906679 L281.282274,286.906679 L281.282274,275.672254 L278.095569,275.672254 L278.095569,286.906679 Z M280.675362,274.370283 L278.489475,274.370283 L280.634185,271.919884 L283.705733,271.903832 L280.675362,274.370283 Z M189.572731,260.264193 C189.572731,261.916171 189.834452,263.457877 190.359986,264.887917 C190.884124,266.317258 191.683941,267.557462 192.759436,268.605739 C193.834932,269.655411 195.179825,270.481749 196.793417,271.08545 C197.016751,271.168503 197.25893,271.232712 197.492733,271.304597 L193.161439,282.365241 L187.009967,297.976326 L186.795706,297.976326 L186.795706,290.18544 L172.579066,290.18544 L172.579066,287.58778 L186.127098,287.58778 L186.127098,280.308469 L172.579066,280.308469 L172.579066,277.907623 L186.127098,277.907623 L186.127098,270.116737 L189.572731,270.116737 L189.572731,260.264193 Z M163.764609,270.116737 L163.764609,297.976326 L155.062937,297.976326 L155.062937,270.116737 L163.764609,270.116737 Z M207.156908,293.884419 L208.61277,297.976326 L196.926091,297.976326 L198.303088,293.884419 L207.156908,293.884419 Z M215.661208,260.263984 L215.661208,289.91374 L210.860213,277.597537 L208.315595,271.03848 C209.904062,270.438967 211.24058,269.630775 212.316773,268.60553 C213.41879,267.557253 214.250711,266.317048 214.815329,264.887707 C215.379248,263.458366 215.661208,261.91666 215.661208,260.263984 Z M202.828405,279.836396 L205.071521,286.722079 L200.546205,286.722079 L202.828405,279.836396 Z M180.482666,255.502352 L180.718563,255.542133 L180.462427,270.116807 L175.648171,270.116807 L180.482666,255.502352 Z M163.562352,255.463268 L168.324961,270.116807 L163.768936,270.116807 L163.365538,255.463268 L163.562352,255.463268 Z M206.335246,246.663747 L206.335246,259.240972 C206.335246,260.578886 206.014202,261.621579 205.371418,262.369052 C204.728633,263.117223 203.817149,263.49061 202.636965,263.49061 C201.456084,263.49061 200.5446,263.117223 199.901815,262.369052 C199.25903,261.621579 198.937987,260.578886 198.937987,259.240972 L198.937987,249.040167 L204.298016,249.040167 L206.335246,246.663747 Z M176.926482,243.34367 L172.55401,258.3357 L172.357197,258.3357 L167.314024,243.34367 L176.926482,243.34367 Z M202.458786,243.3436 L198.937777,249.040027 L198.937777,243.3436 L202.458786,243.3436 Z M127.445386,261.959582 C132.556258,261.959582 134.455299,265.010192 134.455299,267.886323 C134.455299,278.209264 103.589068,295.53514 95.6907024,299.793851 C93.3198665,301.071743 90.4144236,302.354521 88.3108912,302.354521 C77.2593205,302.354521 68.5402,282.959311 68.5402,272.988819 C68.5402,266.05149 71.2111417,261.959582 77.5287178,261.959582 Z M73.4179662,263.837686 C70.8168166,265.146985 69.5780077,268.01125 69.5780077,272.590307 C69.5780077,281.781919 78.0591374,299.529339 88.3108912,299.529339 C89.1344374,299.529339 90.3564962,299.197827 91.8430668,298.629719 C89.9433272,298.27727 87.8718993,297.365785 85.5603867,295.87084 C80.4767339,292.581541 71.7450508,285.238021 70.3820121,273.022319 C70.1530942,270.974621 70.3631683,268.889234 70.9724529,267.147225 C71.3744551,265.997052 72.103782,264.723347 73.4179662,263.837686 Z M127.445386,264.224334 L77.5287178,264.224334 C72.5448677,264.224334 71.0624846,267.983333 71.5782478,272.684526 C72.7751814,283.601398 81.4342808,291.127772 86.8306019,294.261435 C91.9240256,297.219222 94.9865006,296.80396 98.0727049,295.320181 C104.302343,292.326102 111.645862,287.858713 116.727421,284.26512 C130.684435,274.396525 132.191245,269.523644 132.191245,267.886323 C132.191245,266.5177 131.574982,264.224334 127.445386,264.224334 Z M94.1719576,271.774019 C96.187552,268.3905 99.9493433,266.915794 102.572826,268.478438 C105.195612,270.043176 105.688343,274.053427 103.671353,277.436248 C101.653665,280.819766 97.8932696,282.296566 95.2697865,280.73113 C92.6470014,279.167788 92.1535716,275.157537 94.1719576,271.774019 Z M85.8910614,268.005248 L85.9057177,274.309564 L88.3309914,268.005248 L92.3949823,268.005248 L91.6014467,281.226654 L87.6358626,281.226654 L88.3149392,275.27758 L85.8052172,281.226654 L83.3638913,281.226654 L83.1286921,275.27758 L81.5339438,281.226654 L77.5676618,281.226654 L81.8270704,268.005248 L85.8910614,268.005248 Z M111.083967,268.004969 L109.327999,277.198675 L112.073618,277.198675 L108.976945,281.225677 L104.490014,281.225677 L107.015788,268.004969 L111.083967,268.004969 Z M99.4587052,271.99177 C98.2924801,271.99177 97.1234633,273.164974 96.8470868,274.613159 C96.5693145,276.059948 97.2909642,277.233851 98.4564914,277.233851 C99.6227165,277.233851 100.792431,276.059948 101.069506,274.613159 C101.34658,273.164974 100.624232,271.99177 99.4587052,271.99177 Z" id="Combined-Shape"></path>
        </g>
    </g>
</svg>