<svg height="42" viewBox="0 0 241 42" width="241" xmlns="http://www.w3.org/2000/svg"><g fill="none" transform="translate(.39 .21)"><g fill="#939393"><path d="m89.1141342 16.3898795 2.1133171-10.72220563h3.2680163l-2.088418 10.58837263c-.6816148 3.4578724.7314131 5.3221978 3.6539534 5.3221978 2.8945286 0 5.020295-1.7553915 5.698798-5.1883648l2.113317-10.72220563h3.268016l-2.082193 10.56347343c-1.095564 5.5618524-4.780641 8.353672-9.6422041 8.353672-4.836664 0-7.3670423-2.7918196-6.3026027-8.1949398zm12.7888368-16.09420184 2.670436 1.27608253-3.90917 2.58017663h-2.4961417z"/><path d="m105.68142 21.5533452 2.586402-2.2066891c.815448 1.3850164 1.749166 2.1817899 3.314702 2.1817899 1.752279 0 3.177757-1.170261 3.666403-3.6446162l2.405882-12.21304353h3.345826l-2.424556 12.29085343c-.435736 2.2098015-1.397466 3.8593716-2.70156 4.9487103-1.304095 1.0893388-2.981676 1.6495701-4.839777 1.6495701-2.866517 0-4.463176-1.3321057-5.353322-3.0065749z"/><path d="m132.556963 5.66767387h13.784804l-.575793 2.92565263h-10.5199l-.955506 4.8428888h9.32474l-.575794 2.9256527h-9.324739l-.98663 5.001621h10.650621l-.575794 2.9256526h-13.915524z"/><path d="m147.499579 16.3898795 2.113317-10.72220563h3.268016l-2.088418 10.58837263c-.681615 3.4578724.731413 5.3221978 3.653953 5.3221978 2.894529 0 5.020296-1.7553915 5.698798-5.1883648l2.113317-10.72220563h3.268017l-2.082194 10.56347343c-1.095563 5.5618524-4.780641 8.353672-9.642204 8.353672-4.836664 0-7.367042-2.7918196-6.302602-8.1949398z"/><path d="m169.560244 5.66767387h8.288312c2.33741 0 4.033666.69095201 4.998509 1.86121306.784324 1.01152883 1.067552 2.39343284.750087 4.01810377l-.009337.0529107c-.603805 3.0594857-2.798044 4.8957996-5.54629 5.6396623l3.629054 7.0495779h-3.850035l-3.289803-6.4924589h-4.092801l-1.279195 6.4924589h-3.268016zm6.227906 9.23448013c2.337409 0 4.067902-1.2231718 4.438277-3.1123964l.009337-.0529107c.392162-1.99504612-.824785-3.08749726-3.243117-3.08749726h-4.755742l-1.232509 6.25280436z"/><path d="m185.645109 15.0328747.009337-.0529108c1.033316-5.24127552 5.93534-9.62975446 11.646588-9.62975446 5.711247 0 8.839205 4.33556821 7.80589 9.57684376l-.009337.0529107c-1.033316 5.2412756-5.93534 9.632867-11.646588 9.632867-5.711247 0-8.839206-4.3386806-7.80589-9.5799562zm16.016392 0 .009337-.0529108c.712739-3.6166046-1.322768-6.62629192-5.017183-6.62629192-3.691302 0-6.850384 2.95366422-7.563123 6.57026882l-.009337.0529108c-.712739 3.619717 1.322768 6.6262944 5.017183 6.6262944 3.691302.0031099 6.850384-2.9505543 7.563123-6.5702713zm-1.683807-15.0328747 2.670437 1.27608253-3.90917 2.58017663h-2.496142z"/><path d="m210.441571 5.66767387h7.329694c4.329343 0 6.576493 2.47435515 5.838855 6.22479283l-.009337.0529107c-.824785 4.176836-4.600122 6.3586259-8.689811 6.3586259h-3.691302l-1.179598 5.9851383h-3.268016zm5.157241 9.68577763c2.471243 0 4.282658-1.381904 4.665482-3.3240394l.009338-.0529107c.42951-2.18178988-.911933-3.32715176-3.355164-3.32715176h-3.797123l-1.322769 6.70410186z"/><path d="m232.489787 5.53695322h3.028362l4.481851 18.75530078h-3.451648l-.999079-4.4974128h-8.79252l-2.798044 4.4974128h-3.348939zm2.433894 11.36024688-1.746054-7.45107698-4.656145 7.45107698z"/><path d="m11.9453774 14.6376003-.0186743-9.03217436h-5.82329373l-6.10340937 18.94204456h5.68323585l2.28449897-8.5248538.33613882 8.5248538h3.49833356l3.5948179-8.5248538-.9710677 8.5248538h5.6801234l1.1391371-18.94204456h-5.8232937z"/><path d="m35.8267951 6.28392836c-3.7597748-2.24092542-9.147333-.12760825-12.0356369 4.72150534-2.8914163 4.8460012-2.1849023 10.591485 1.5717602 12.8355228 3.7566625 2.2409255 9.1473331.1276083 12.0387493-4.7215053 2.8883039-4.8491136 2.1817899-10.59459742-1.5748726-12.83552284m-2.1537783 8.78629504c-.3952743 2.0728561-2.072856 3.7535501-3.7442129 3.7535501-1.6682444 0-2.7046725-1.6838064-2.3062857-3.7535501.3983867-2.072856 2.072856-3.75355 3.7442129-3.75355 1.6682445 0 2.7015601 1.680694 2.3062857 3.75355"/><path d="m45.5032356 18.7770876 2.5179287-13.17166166h-5.8295185l-3.619717 18.94204456h6.430211l4.4351649-5.7703829z"/><path d="m91.1122927 31.4196418h1.5997717l2.48058 9.9098702h-1.8238643l-.5540066-2.3747585h-4.6436954l-1.4503768 2.3747585h-1.7678411zm1.3538924 6.0007003-.9679553-3.9340691-2.4152196 3.9340691z"/><path d="m105.22701 31.4912269h1.72738l-1.534411 8.2634125h5.163466l-.292566 1.5748726h-6.890845z"/><path d="m123.932513 31.4196418h1.599772l2.48058 9.9098702h-1.823865l-.554006-2.3747585h-4.643696l-1.450376 2.3747585h-1.767842zm1.353892 6.0007003-.967955-3.9340691-2.41522 3.9340691z"/><path d="m138.050343 31.4912269h3.871821c2.287612 0 3.488997 1.3072065 3.121734 3.289803l-.006225.0280116c-.410836 2.2066891-2.393433 3.3582757-4.553436 3.3582757h-1.951473l-.58513 3.1621948h-1.72738zm2.782482 5.1167797c1.304095 0 2.256488-.7314131 2.446344-1.7553915l.006225-.0280116c.214755-1.1515867-.501096-1.7553916-1.792741-1.7553916h-2.007495l-.656716 3.5419071h2.004383z"/><path d="m154.044948 31.4912269h1.72738l-1.830089 9.8382851h-1.72738zm2.284499-2.8540675 1.419253.67539-2.047957 1.3632297h-1.319656z"/><path d="m167.036091 33.0941111h-3.115509l.29879-1.6028842h7.970847l-.29879 1.6028842h-3.115509l-1.528186 8.2354009h-1.73983z"/><path d="m179.694207 31.4912269h1.907899l1.556198 7.5600109 4.35113-7.5600109h1.867438l-5.926002 9.9067578h-1.515738z"/><path d="m199.675792 31.4196418h1.599772l2.48058 9.9098702h-1.823865l-.554006-2.3747585h-4.643696l-1.450376 2.3747585h-1.767841zm1.357005 6.0007003-.967955-3.9340691-2.41522 3.9340691zm.855909-8.9232405 1.419253.67539-2.047957 1.3632296h-1.319656z"/><path d="m213.793622 31.4912269h1.599772l3.999429 6.8036986 1.263633-6.8036986h1.699369l-1.830089 9.8382851h-1.444152l-4.117701-6.9997795-1.300981 6.9997795h-1.699369z"/><path d="m233.186964 37.4483537-2.794932-5.9602392h2.035508l1.942135 4.357355 3.588593-4.357355h1.979484l-5.001621 5.9166656-.728301 3.9216195h-1.739829z"/></g><path d="m76.77037 5.75793337h-5.1603533l-27.3330653 35.55601663h5.1603533z" fill="#e5332b"/><path d="m79.3287598 5.75793337h-2.5583898l-27.3330653 35.55601663h2.5583898z" fill="#fff"/><path d="m51.9956945 41.31395h2.5521651l27.3330653-35.55601663h-2.5521651z" fill="#abcb58"/></g></svg>