<?xml version="1.0" encoding="UTF-8" standalone="no"?>
<svg
   version="1.1"
   id="svg182"
   width="228"
   height="51"
   viewBox="0 0 1318.08 293.90668"
   sodipodi:docname="Co-fundedbytheEU.svg"
   inkscape:version="1.2.2 (b0a84865, 2022-12-01)"
   xmlns:inkscape="http://www.inkscape.org/namespaces/inkscape"
   xmlns:sodipodi="http://sodipodi.sourceforge.net/DTD/sodipodi-0.dtd"
   xmlns="http://www.w3.org/2000/svg"
   xmlns:svg="http://www.w3.org/2000/svg">
  <defs
     id="defs186" />
  <sodipodi:namedview
     id="namedview184"
     pagecolor="#ffffff"
     bordercolor="#000000"
     borderopacity="0.25"
     inkscape:showpageshadow="2"
     inkscape:pageopacity="0.0"
     inkscape:pagecheckerboard="0"
     inkscape:deskcolor="#d1d1d1"
     showgrid="false"
     inkscape:zoom="0.80297598"
     inkscape:cx="212.9578"
     inkscape:cy="127.02746"
     inkscape:window-width="1419"
     inkscape:window-height="430"
     inkscape:window-x="0"
     inkscape:window-y="33"
     inkscape:window-maximized="0"
     inkscape:current-layer="g192">
    <inkscape:page
       x="0"
       y="0"
       id="page188"
       width="1318.08"
       height="293.90668" />
  </sodipodi:namedview>
  <g
     id="g190"
     inkscape:groupmode="layer"
     inkscape:label="Page 1"
     transform="matrix(1.3333333,0,0,-1.3333333,0,293.90667)">
    <g
       id="g192"
       transform="scale(0.1)">
      <path fill="currentColor"
         d="m 2252.87,1018.27 -59.84,43.75 -59.77,-43.75 22.74,70.63 -60.78,43.67 74.92,-0.08 22.89,71.64 22.97,-71.56 h 74.92 l -60.78,-43.67 z m -82.19,-311.09 -59.84,43.75 -59.84,-43.75 22.81,70.629 -60.78,43.671 74.84,-0.082 22.97,71.641 22.97,-71.559 h 74.84 l -60.78,-43.671 z m -82.81,734.61 22.96,71.64 22.97,-71.56 h 74.85 l -60.78,-43.59 22.81,-70.63 -59.85,43.67 -59.84,-43.67 22.81,70.63 -60.78,43.59 z m -166.09,182.58 22.73,-70.63 -59.76,43.75 -59.92,-43.75 22.73,70.63 -60.7,43.75 74.92,-0.16 22.89,71.64 22.89,-71.48 h 75 z m 21.87,-1144.222 -59.84,43.672 -59.84,-43.672 22.73,70.633 -60.7,43.668 74.84,-0.078 22.97,71.559 22.89,-71.481 h 74.92 l -60.78,-43.668 z m -309.34,-82.269 -59.8,43.672 -59.84,-43.672 22.73,70.633 -60.74,43.668 74.92,-0.078 22.89,71.636 22.93,-71.558 h 74.92 l -60.78,-43.668 z m -82.81,1353.361 22.93,71.56 22.93,-71.48 h 74.93 l -60.79,-43.67 22.78,-70.63 -59.85,43.67 -59.84,-43.67 22.77,70.63 -60.74,43.67 z m -226.49,-1271.092 -59.8,43.672 -59.84,-43.672 22.73,70.633 -60.74,43.668 74.92,-0.078 22.89,71.559 22.93,-71.481 h 74.92 l -60.74,-43.668 z m -83.23,1187.892 22.93,71.64 22.92,-71.56 h 74.93 l -60.75,-43.67 22.74,-70.63 -59.81,43.67 -59.84,-43.67 22.73,70.63 -60.74,43.67 z m -166.57,-270.7 22.77,-70.63 -59.84,43.67 -59.835,-43.67 22.765,70.63 -60.734,43.67 74.874,-0.08 22.93,71.64 22.93,-71.56 h 74.88 z m 22.77,-690.16 -59.84,43.75 -59.835,-43.75 22.765,70.629 -60.734,43.671 74.874,-0.082 22.93,71.641 22.93,-71.559 h 74.88 l -60.74,-43.671 z m -240.804,424.53 74.918,-0.16 22.929,71.72 22.93,-71.56 h 74.877 l -60.736,-43.68 22.736,-70.62 -59.807,43.67 -59.839,-43.67 22.769,70.62 z M 157.012,2048.97 V 158.27 H 2993.03 v 1890.7 H 157.012"
         
         id="path194" />
      <g
         id="g196"
         transform="scale(10)">
        <text
           fill="currentColor"
           fill-opacity="0.8"
           xml:space="preserve"
           transform="matrix(1,0,0,-1,335.537,133.728)"
           style="font-variant:normal;font-weight:bold;font-size:65px;font-family:Arial;-inkscape-font-specification:Arial-BoldMT;writing-mode:lr-tb;fill-rule:nonzero;stroke:none"
           id="text202"><tspan
             x="0 46.941402 86.645515 108.29051 129.93552 169.63962 209.34471 249.0498 285.19922 324.90332 342.96292 382.66705"
             y="0"
             sodipodi:role="line"
             id="tspan198">Co-funded by</tspan><tspan
             x="0 21.645514 61.349625 97.500023 115.5586 158.91414 198.61824 223.91414 263.61826 303.32236 339.47275 375.62317 415.32727 433.38687 480.32727 520.03143 538.091 577.79504"
             y="78"
             sodipodi:role="line"
             id="tspan200">the European Union</tspan></text>
      </g>
    </g>
  </g>
</svg>
